<svg width="1440" height="1024" viewBox="0 0 1440 1024" fill="none" xmlns="http://www.w3.org/2000/svg">
<path d="M1440 6.10352e-05H6.10352e-05V1024H1440V6.10352e-05Z" fill="#0F053B"/>
<path d="M6.10352e-05 641.424C117.175 620.458 162.532 472.62 266.619 414.867C382.123 350.779 548.004 389.762 634.105 289.586C722.658 186.557 739.345 30.643 711.067 -102.236C683.45 -232.01 572.399 -320.467 483.348 -418.823C396.299 -514.967 324.255 -646.233 196.799 -670.235C70.251 -694.066 -35.601 -578.241 -158.467 -539.689C-278.245 -502.105 -439.99 -546.975 -515.542 -446.719C-592.008 -345.25 -518.155 -200.104 -509.921 -73.3159C-503.493 25.6571 -500.316 120.585 -472.517 215.791C-440.484 325.497 -420.818 446.183 -335.902 522.673C-245.84 603.799 -119.318 662.773 6.10352e-05 641.424Z" fill="#120647"/>
<path d="M1440 1577.6C1541.92 1578.47 1612.95 1481.64 1698.76 1426.63C1784.67 1371.55 1899.69 1346.1 1944.28 1254.3C1989.03 1162.2 1947.34 1054.41 1928.5 953.765C1910.43 857.273 1890.53 762.333 1836.78 680.189C1777.32 589.332 1710.15 489.327 1605.54 460.231C1501.18 431.206 1387.54 473.51 1294.79 529.442C1213.46 578.478 1184.6 677.083 1124.28 750.425C1066.01 821.27 974.06 865.572 946.394 953.03C916.98 1046.02 925.74 1151.73 969.812 1238.73C1013.18 1324.35 1106.21 1366.11 1184.07 1422.23C1266.71 1481.78 1338.14 1576.73 1440 1577.6Z" fill="#0C042F"/>
</svg>
