<svg width="42" height="42" viewBox="0 0 42 42" fill="none" xmlns="http://www.w3.org/2000/svg">
<path d="M13.9973 4.20001C8.59468 4.20001 4.20001 8.59875 4.20001 14.0027V28.0027C4.20001 33.4053 8.59875 37.8 14.0027 37.8H28.0027C33.4053 37.8 37.8 33.4013 37.8 27.9973V13.9973C37.8 8.59468 33.4013 4.20001 27.9973 4.20001H13.9973ZM30.8 9.80001C31.5728 9.80001 32.2 10.4272 32.2 11.2C32.2 11.9728 31.5728 12.6 30.8 12.6C30.0272 12.6 29.4 11.9728 29.4 11.2C29.4 10.4272 30.0272 9.80001 30.8 9.80001ZM21 12.6C25.6326 12.6 29.4 16.3674 29.4 21C29.4 25.6326 25.6326 29.4 21 29.4C16.3674 29.4 12.6 25.6326 12.6 21C12.6 16.3674 16.3674 12.6 21 12.6ZM21 15.4C19.5148 15.4 18.0904 15.99 17.0402 17.0402C15.99 18.0904 15.4 19.5148 15.4 21C15.4 22.4852 15.99 23.9096 17.0402 24.9598C18.0904 26.01 19.5148 26.6 21 26.6C22.4852 26.6 23.9096 26.01 24.9598 24.9598C26.01 23.9096 26.6 22.4852 26.6 21C26.6 19.5148 26.01 18.0904 24.9598 17.0402C23.9096 15.99 22.4852 15.4 21 15.4Z" fill="white"/>
</svg>
