<?xml version="1.0" encoding="UTF-8"?>
<svg xmlns="http://www.w3.org/2000/svg" xmlns:xlink="http://www.w3.org/1999/xlink" viewBox="0 0 42 42" width="42px" height="42px">
<g id="surface9263420">
<path style=" stroke:none;fill-rule:nonzero;fill:rgb(100%,100%,100%);fill-opacity:1;" d="M 34.441406 3.359375 L 7.558594 3.359375 C 5.242188 3.359375 3.359375 5.242188 3.359375 7.558594 L 3.359375 34.441406 C 3.359375 36.757812 5.242188 38.640625 7.558594 38.640625 L 34.441406 38.640625 C 36.757812 38.640625 38.640625 36.757812 38.640625 34.441406 L 38.640625 7.558594 C 38.640625 5.242188 36.757812 3.359375 34.441406 3.359375 Z M 14.28125 16.800781 L 14.28125 32.761719 L 9.238281 32.761719 L 9.238281 16.800781 Z M 9.238281 12.15625 C 9.238281 10.980469 10.246094 10.078125 11.761719 10.078125 C 13.273438 10.078125 14.222656 10.980469 14.28125 12.15625 C 14.28125 13.332031 13.339844 14.28125 11.761719 14.28125 C 10.246094 14.28125 9.238281 13.332031 9.238281 12.15625 Z M 32.761719 32.761719 L 27.71875 32.761719 C 27.71875 32.761719 27.71875 24.980469 27.71875 24.359375 C 27.71875 22.679688 26.878906 21 24.78125 20.964844 L 24.710938 20.964844 C 22.679688 20.964844 21.839844 22.695312 21.839844 24.359375 C 21.839844 25.125 21.839844 32.761719 21.839844 32.761719 L 16.800781 32.761719 L 16.800781 16.800781 L 21.839844 16.800781 L 21.839844 18.949219 C 21.839844 18.949219 23.460938 16.800781 26.71875 16.800781 C 30.054688 16.800781 32.761719 19.09375 32.761719 23.738281 Z M 32.761719 32.761719 "/>
</g>
</svg>
