<?xml version="1.0" encoding="UTF-8"?><svg id="a" xmlns="http://www.w3.org/2000/svg" xmlns:xlink="http://www.w3.org/1999/xlink" viewBox="0 0 1141.99 246.11"><defs><style>.c{fill:none;}.d{fill:#fff;}.e{clip-path:url(#b);}</style><clipPath id="b"><rect class="c" width="1141.99" height="246.11"/></clipPath></defs><g class="e"><g><path class="d" d="M1101.88,123.08c0,18.54-5.59,33.77-16.77,45.68-11.18,11.92-25.87,17.87-44.08,17.85-8.39,0-15.69-1.54-21.91-4.61-5.87-2.69-10.69-7.23-13.74-12.92v76.59h-37.91V63.66h37.91v13.61c3.72-5.56,8.85-10.04,14.87-12.97,6.49-3.06,13.6-4.58,20.78-4.44,18.21,0,32.9,5.9,44.08,17.69,11.18,11.79,16.77,26.97,16.77,45.52Zm-37.77,0c0-9.33-2.8-17.17-8.43-23.59-2.59-3.07-5.84-5.52-9.49-7.17-3.66-1.66-7.64-2.48-11.65-2.4-3.97-.07-7.91,.75-11.52,2.4-3.61,1.65-6.8,4.08-9.35,7.13-5.54,6.34-8.31,14.22-8.29,23.63,0,9.45,2.79,17.39,8.38,23.83,2.52,3.06,5.69,5.52,9.29,7.19,3.6,1.67,7.52,2.51,11.49,2.46,4.01,.06,7.98-.79,11.62-2.46,3.64-1.68,6.87-4.15,9.43-7.24,5.68-6.5,8.52-14.43,8.52-23.78Zm-112.91,59.62h-37.91v-13.61c-3.69,5.6-8.81,10.12-14.83,13.09-6.51,3.06-13.63,4.58-20.82,4.44-18.21,0-32.91-5.91-44.09-17.73-11.17-11.84-16.76-27.04-16.76-45.61,0-18.54,5.59-33.74,16.76-45.6,11.18-11.87,25.88-17.81,44.09-17.81,8.38,0,15.68,1.52,21.9,4.56,5.87,2.65,10.71,7.17,13.75,12.85v-13.62h37.91v119.04Zm-37.9-59.42c0-9.37-2.79-17.27-8.38-23.71-5.59-6.42-12.49-9.65-20.78-9.65-3.94-.06-7.84,.77-11.42,2.42-3.57,1.66-6.73,4.1-9.22,7.15-5.5,6.42-8.25,14.35-8.25,23.79,0,9.49,2.72,17.41,8.16,23.75,2.51,3.05,5.68,5.49,9.28,7.14s7.51,2.47,11.46,2.39c3.97,.07,7.91-.76,11.52-2.41,3.61-1.66,6.81-4.1,9.35-7.16,5.54-6.42,8.29-14.3,8.29-23.71Zm-105.47,55.54c-4.78,2.67-9.89,4.72-15.19,6.1-5.46,1.21-11.04,1.78-16.63,1.7-22.17,0-39.89-5.76-53.14-17.29-13.25-11.51-19.88-26.86-19.88-46.05,0-18.82,6.67-34.1,20.01-45.85,13.34-11.71,31.01-17.57,53.01-17.57,5.66-.07,11.32,.48,16.86,1.66,5.2,1.24,10.22,3.11,14.96,5.57v33.93c-3.85-3.56-8.39-6.3-13.34-8.04-5.13-1.99-10.59-3.03-16.09-3.07-10.64,0-19.46,3.15-26.46,9.45-3.37,2.95-6.06,6.6-7.88,10.69-1.81,4.1-2.71,8.54-2.62,13.02,0,10.26,3.33,18.38,9.96,24.44,6.62,6.02,15.62,9.03,27,9.05,5.58,.01,11.12-1.03,16.32-3.07,4.93-1.86,9.41-4.77,13.12-8.52v33.85Zm-108.4-87.25h-18.62v91.13h-37.91V91.57h-14.92v-27.91h14.92V25.21h37.91V63.66h18.62v27.91Zm-77.44,31.47c0,2.91,0,5.09-.05,6.5-.04,1.32-.21,2.63-.49,3.92h-91.1c1.58,7.12,5.37,13.57,10.82,18.42,5.02,4.55,11.57,7.06,18.35,7.03,5.61,.08,11.14-1.31,16.05-4.04,4.62-2.48,8.38-6.31,10.77-10.98l30.38,13.61c-5.24,9.36-13.22,16.9-22.85,21.61-9.96,5.01-21.73,7.51-35.38,7.51-19.7,0-35.52-5.82-47.46-17.45-11.94-11.63-17.91-27-17.89-46.09,0-17.85,6.2-32.85,18.61-45,12.4-12.16,27.71-18.23,45.93-18.22,18.93,0,34.39,5.95,46.38,17.85,11.95,11.92,17.93,27.03,17.94,45.32Zm-37.5-10.42c-1.67-7.8-4.9-13.94-9.69-18.42-4.75-4.36-10.97-6.77-17.42-6.75-6.45,.02-12.65,2.47-17.38,6.87-4.87,4.56-8.08,10.66-9.65,18.3h54.13Zm-102.18,70.08h-38.94l-94.97-123.28v123.28h-38.94V0h38.94l94.97,122.83V0h38.94V182.7Z"/><path class="d" d="M922.39,235.36l9.04-1.38c.21,1.62,.94,3.13,2.07,4.3,1.15,.93,2.61,1.4,4.09,1.31,1.11,.06,2.21-.23,3.15-.82,.37-.23,.67-.56,.88-.94,.21-.39,.31-.82,.3-1.26,0-1.78-3.17-4.32-9.5-7.61l-.24-.12c-2.52-1.17-4.8-2.78-6.74-4.77-.77-.87-1.34-1.9-1.67-3.01s-.41-2.29-.24-3.44c.17-1.15,.59-2.25,1.24-3.22,.64-.97,1.49-1.78,2.48-2.39,2.55-1.71,5.88-2.57,9.98-2.57,3.28-.15,6.54,.68,9.35,2.39,1.13,.71,2.07,1.67,2.77,2.8,.69,1.13,1.12,2.41,1.23,3.74l-8.84,1.45c-.22-1.25-.83-2.39-1.73-3.27-.9-.65-1.97-1.03-3.08-1.07-1.11-.04-2.21,.24-3.15,.82-.35,.25-.62,.58-.81,.97-.19,.38-.28,.81-.26,1.23,0,1.51,2.21,3.45,6.64,5.84,1.19,.66,2.12,1.18,2.78,1.54,2.64,1.37,5.05,3.15,7.14,5.26,1.24,1.41,1.93,3.23,1.93,5.11,0,1.37-.34,2.72-1.01,3.91-.67,1.19-1.65,2.19-2.82,2.89-2.55,1.7-5.93,2.56-10.12,2.56-3.52,.14-7-.8-9.97-2.7-1.28-.86-2.37-1.97-3.21-3.27-.83-1.3-1.39-2.75-1.64-4.27h0Zm-19.94,2.07v-21.78h-5.78v-5.34h5.78v-9.88h9.31v9.88h6.96v5.34h-6.96v21.16c-.03,.43,.06,.86,.24,1.25,.18,.39,.47,.73,.82,.98,.93,.55,2,.81,3.08,.74,.39,0,.77-.03,1.16-.08,.45-.06,1-.14,1.62-.24l.05,5.6c-.87,.19-1.75,.33-2.63,.42-.88,.09-1.8,.13-2.78,.13-3.64,0-6.35-.68-8.15-2.04-.92-.72-1.65-1.66-2.12-2.73-.47-1.07-.68-2.24-.6-3.41h0Zm-38.08,7.25v-34.37h9.45v3.77c1.61-1.31,3.4-2.37,5.33-3.15,1.7-.69,3.51-1.05,5.34-1.08,1.78-.14,3.54,.4,4.93,1.52,.58,.6,1.03,1.31,1.32,2.09,.28,.78,.4,1.62,.34,2.45v28.76h-9.36v-25.92c.1-.76-.1-1.53-.54-2.15-.55-.43-1.24-.62-1.94-.55-.9,.06-1.77,.3-2.57,.72-1.02,.49-1.98,1.11-2.84,1.85v26.05h-9.45Zm-17.91-3.85c-1.44,1.35-3.12,2.43-4.94,3.18-1.75,.74-3.63,1.13-5.54,1.13-2.19,.14-4.36-.57-6.05-1.97-.74-.73-1.31-1.6-1.68-2.57-.37-.96-.53-2-.46-3.03,0-1.56,.35-3.1,1.03-4.5,.68-1.4,1.67-2.63,2.9-3.6,2.61-2.22,7.42-4.62,14.44-7.2v-3.71c.03-.43-.03-.85-.17-1.26-.14-.4-.35-.78-.63-1.1-.32-.28-.69-.5-1.09-.64-.4-.14-.83-.19-1.25-.16-1.09-.06-2.17,.21-3.1,.77-.35,.23-.64,.54-.84,.92-.2,.37-.29,.79-.28,1.21v1.9h-9.45c0-.15-.02-.3-.05-.45-.03-.15-.04-.3-.05-.45,0-1.43,.37-2.82,1.07-4.07,.7-1.24,1.7-2.28,2.92-3.02,2.99-1.94,6.5-2.91,10.06-2.77,4.22,0,7.36,.88,9.42,2.64,2.06,1.76,3.09,4.47,3.08,8.12v14.65c0,2.3,.08,4.3,.24,6.01,.07,1.29,.29,2.56,.66,3.8h-9.37c-.27-.5-.47-1.04-.58-1.59-.16-.74-.27-1.5-.31-2.26h0Zm-.29-4.7v-8.92c-2.51,.97-4.82,2.36-6.85,4.12-.61,.6-1.09,1.32-1.41,2.11-.32,.79-.48,1.64-.47,2.49-.06,.89,.21,1.77,.75,2.48,.26,.29,.59,.52,.95,.67,.36,.15,.76,.22,1.15,.2,1.16-.03,2.29-.33,3.31-.88,1.02-.55,1.9-1.33,2.56-2.28h0Zm-39.17,1.31v-21.78h-5.79v-5.34h5.78v-9.88h9.31v9.88h6.96v5.34h-6.96v21.16c-.03,.43,.05,.86,.24,1.25,.18,.39,.47,.73,.82,.98,.93,.55,2,.81,3.08,.74,.39,0,.77-.03,1.16-.08,.45-.06,.99-.14,1.62-.24l.05,5.6c-.87,.19-1.75,.33-2.63,.42-.88,.09-1.8,.13-2.78,.13-3.64,0-6.36-.68-8.15-2.04-.92-.73-1.64-1.66-2.11-2.73-.47-1.07-.68-2.24-.59-3.4h0Zm-21.01,7.25v-46.57h9.45v46.57h-9.45Zm-9.07-34.36v34.36h-9.3v-3.77c-1.61,1.34-3.43,2.41-5.38,3.19-1.73,.71-3.57,1.08-5.44,1.1-1.76,.13-3.51-.41-4.88-1.53-.58-.61-1.03-1.33-1.32-2.12-.28-.79-.4-1.64-.33-2.48v-28.77h9.35v26.37c-.03,.32,0,.64,.11,.95,.1,.31,.27,.59,.49,.82,.54,.41,1.22,.61,1.89,.55,.91-.06,1.8-.3,2.62-.72,1.04-.48,2.01-1.11,2.89-1.85v-26.12h9.3Zm-61.87,25.06l9.04-1.38c.21,1.62,.94,3.13,2.07,4.3,1.15,.93,2.61,1.4,4.09,1.31,1.11,.06,2.21-.23,3.15-.82,.37-.24,.67-.56,.88-.95,.21-.38,.31-.82,.3-1.25,0-1.78-3.17-4.32-9.5-7.61l-.24-.12c-2.52-1.17-4.8-2.79-6.74-4.77-.77-.87-1.34-1.9-1.67-3.01s-.41-2.29-.24-3.44c.17-1.15,.59-2.25,1.23-3.22,.64-.97,1.49-1.78,2.48-2.39,2.55-1.71,5.88-2.57,9.98-2.57,3.29-.15,6.54,.68,9.35,2.39,1.13,.71,2.07,1.67,2.77,2.8,.69,1.13,1.12,2.41,1.23,3.74l-8.84,1.45c-.22-1.25-.83-2.39-1.74-3.27-.9-.65-1.97-1.03-3.08-1.07-1.11-.04-2.21,.24-3.15,.82-.35,.25-.62,.58-.81,.97-.19,.38-.28,.81-.26,1.23,0,1.51,2.21,3.45,6.64,5.84,1.18,.66,2.12,1.18,2.77,1.54,2.64,1.37,5.05,3.15,7.14,5.27,1.24,1.41,1.93,3.23,1.93,5.11,0,1.37-.34,2.72-1.01,3.91-.67,1.19-1.65,2.19-2.82,2.89-2.55,1.7-5.93,2.56-10.13,2.56-3.52,.14-7-.8-9.97-2.7-1.28-.86-2.38-1.97-3.21-3.27-.84-1.3-1.39-2.76-1.64-4.28h0Zm-32.4,9.32v-34.37h9.45v3.77c1.61-1.31,3.41-2.37,5.33-3.15,1.7-.69,3.51-1.05,5.34-1.08,1.78-.14,3.53,.4,4.92,1.52,.58,.6,1.03,1.31,1.32,2.09,.29,.78,.4,1.62,.34,2.45v28.76h-9.36v-25.92c.09-.76-.1-1.53-.54-2.15-.55-.43-1.25-.62-1.94-.55-.9,.06-1.77,.3-2.56,.72-1.02,.49-1.98,1.11-2.84,1.85v26.05h-9.45Zm-35.11-26.5c0-1.3,.34-2.58,1-3.7,.66-1.12,1.61-2.04,2.75-2.67,2.52-1.57,5.89-2.36,10.11-2.37,3.34-.14,6.65,.73,9.48,2.49,1.12,.66,2.05,1.6,2.69,2.72,.65,1.13,.99,2.4,1,3.7v17.75c.04,1.37-.27,2.72-.9,3.93-.63,1.21-1.57,2.24-2.72,2.98-2.41,1.68-5.73,2.52-9.96,2.52-4.08,0-7.34-.87-9.77-2.6-1.16-.75-2.1-1.79-2.74-3.01-.64-1.22-.97-2.58-.93-3.96v-17.8Zm9.65,18.44c-.02,.42,.06,.84,.23,1.22,.17,.38,.43,.72,.76,.98,.82,.57,1.81,.84,2.81,.77,1.05,.06,2.1-.22,2.98-.79,.35-.24,.64-.57,.83-.95,.19-.38,.29-.8,.27-1.23v-18.72c0-.38-.11-.74-.31-1.06-.2-.32-.48-.58-.82-.75-.91-.5-1.93-.74-2.96-.69-.96-.04-1.92,.2-2.74,.69-.32,.18-.59,.44-.78,.76-.19,.32-.28,.68-.28,1.05v18.72Zm-49.04-3.89v-23.88c-.06-1.69,.31-3.37,1.08-4.87,.76-1.51,1.9-2.8,3.29-3.76,2.92-2.08,6.95-3.12,12.1-3.12,4.85,0,8.69,1.07,11.54,3.2,1.37,1,2.47,2.32,3.21,3.85,.74,1.53,1.1,3.21,1.04,4.9v4.47h-10.77v-5.12c.05-.67-.04-1.34-.28-1.96-.24-.62-.61-1.19-1.08-1.66-1.2-.79-2.61-1.21-4.04-1.21s-2.84,.42-4.04,1.21c-.48,.47-.85,1.03-1.08,1.66-.23,.62-.33,1.29-.28,1.96v25.99c-.05,.67,.05,1.35,.28,1.98,.23,.63,.6,1.2,1.08,1.68,1.2,.79,2.61,1.22,4.04,1.22s2.84-.42,4.04-1.22c.48-.47,.85-1.04,1.08-1.68,.24-.63,.33-1.3,.28-1.98v-6.34h10.77v4.87c0,4.07-1.4,7.22-4.2,9.43-2.8,2.21-6.79,3.32-11.97,3.32-5.3,0-9.3-1.1-12.02-3.29s-4.07-5.41-4.07-9.67h0Zm-54.4,2.26v-15.43c-.01-1.45,.35-2.88,1.04-4.16,.69-1.28,1.69-2.36,2.91-3.14,3.02-1.99,6.59-2.98,10.2-2.82,4.25,0,7.54,.87,9.82,2.61,1.14,.88,2.04,2.02,2.64,3.33,.6,1.31,.87,2.74,.79,4.18v8.76h-17.77v6.48c-.13,1.32,.19,2.64,.92,3.75,.42,.39,.91,.68,1.45,.86,.54,.18,1.11,.24,1.68,.18,1.14,.12,2.29-.2,3.21-.89,.61-.58,.91-1.89,.91-3.9v-2.39h9.6v2.57c0,3.53-1.17,6.18-3.5,7.96-2.33,1.77-5.82,2.67-10.46,2.67-4.17,0-7.45-.94-9.85-2.84-1.18-.92-2.12-2.1-2.74-3.46-.63-1.35-.92-2.84-.86-4.33h0Zm9.64-11.99h8.17v-3.48c.05-.55,0-1.11-.17-1.64-.16-.53-.43-1.02-.79-1.45-.87-.7-1.97-1.03-3.08-.93-1.14-.11-2.27,.23-3.16,.93-.36,.43-.63,.92-.79,1.45-.16,.53-.22,1.09-.17,1.64v3.48Zm-44.11,12.39l9.03-1.38c.21,1.62,.93,3.13,2.07,4.3,1.15,.93,2.61,1.4,4.09,1.31,1.11,.06,2.21-.23,3.15-.82,.37-.23,.67-.56,.88-.95,.21-.39,.31-.82,.3-1.25,0-1.78-3.17-4.32-9.5-7.61l-.24-.12c-2.52-1.17-4.8-2.78-6.74-4.77-.77-.87-1.34-1.9-1.67-3.01-.33-1.11-.41-2.29-.24-3.44,.17-1.15,.59-2.25,1.23-3.21,.64-.97,1.49-1.79,2.48-2.39,2.55-1.71,5.87-2.57,9.98-2.57,3.28-.15,6.54,.68,9.35,2.39,1.13,.71,2.07,1.67,2.77,2.8,.69,1.13,1.12,2.41,1.23,3.74l-8.84,1.45c-.22-1.25-.83-2.39-1.73-3.27-.9-.65-1.97-1.03-3.07-1.07-1.11-.04-2.2,.24-3.15,.82-.35,.25-.63,.58-.81,.96-.19,.38-.28,.81-.26,1.24,0,1.51,2.22,3.45,6.65,5.84,1.19,.66,2.12,1.18,2.78,1.54,2.64,1.37,5.05,3.15,7.14,5.26,1.24,1.41,1.93,3.23,1.92,5.11,.01,1.37-.34,2.72-1.01,3.91-.67,1.19-1.65,2.19-2.82,2.89-2.55,1.7-5.93,2.56-10.12,2.56-3.52,.14-7-.8-9.97-2.7-1.29-.86-2.38-1.97-3.22-3.27-.84-1.3-1.39-2.76-1.64-4.29h0Zm-15.33,9.32v-34.38h9.45v34.36h-9.45Zm0-40.14v-6.41h9.45v6.41h-9.45Zm-35.54,40.15v-46.58h9.45v15.97c1.61-1.31,3.4-2.37,5.33-3.15,1.7-.69,3.51-1.05,5.34-1.08,1.77-.14,3.54,.4,4.93,1.52,.58,.6,1.03,1.31,1.32,2.09,.28,.78,.4,1.62,.34,2.45v28.76h-9.35v-25.92c.09-.76-.1-1.53-.55-2.15-.55-.43-1.25-.62-1.94-.55-.9,.06-1.77,.3-2.57,.72-1.02,.49-1.98,1.11-2.84,1.85v26.05h-9.45Zm-35.2-9.69v-15.18c-.03-1.48,.3-2.95,.98-4.27,.68-1.32,1.68-2.45,2.9-3.28,2.58-1.88,5.97-2.82,10.17-2.82,4.17,0,7.43,.89,9.8,2.67,1.15,.86,2.08,1.98,2.7,3.28,.62,1.3,.91,2.72,.85,4.16v2.7h-9.6v-2.77c.05-.55,0-1.11-.17-1.64-.17-.53-.43-1.02-.79-1.45-.87-.7-1.97-1.03-3.08-.93-1.13-.11-2.27,.23-3.16,.93-.36,.43-.63,.92-.79,1.45-.17,.53-.22,1.09-.17,1.64v15.29c-.13,1.32,.19,2.65,.92,3.76,.42,.39,.91,.68,1.45,.86,.54,.18,1.11,.24,1.68,.18,1.14,.12,2.29-.2,3.21-.89,.61-.58,.92-1.89,.92-3.91v-2.64h9.6v2.83c0,3.52-1.17,6.17-3.5,7.96-2.34,1.78-5.83,2.67-10.46,2.67-4.14,0-7.41-.95-9.82-2.85-1.18-.91-2.13-2.1-2.76-3.45-.63-1.35-.93-2.84-.87-4.33h0Zm-34.61,9.71v-34.38h9.45v3.77c1.61-1.31,3.41-2.37,5.33-3.15,1.7-.69,3.51-1.05,5.34-1.08,1.77-.14,3.54,.4,4.92,1.52,.58,.6,1.03,1.31,1.32,2.09,.29,.78,.4,1.62,.34,2.45v28.76h-9.35v-25.92c.09-.76-.1-1.53-.55-2.15-.55-.43-1.25-.62-1.94-.55-.9,.06-1.77,.3-2.57,.72-1.02,.49-1.98,1.11-2.84,1.85v26.05h-9.45Zm-17.91-3.85c-1.44,1.35-3.12,2.43-4.94,3.18-1.75,.74-3.63,1.13-5.54,1.13-2.19,.14-4.36-.57-6.05-1.97-.74-.73-1.31-1.6-1.68-2.57-.37-.96-.52-2-.46-3.03,0-1.56,.35-3.1,1.03-4.5,.68-1.4,1.67-2.63,2.9-3.6,2.62-2.22,7.43-4.62,14.44-7.2v-3.72c.03-.43-.03-.85-.17-1.26-.14-.4-.35-.78-.64-1.1-.32-.29-.69-.5-1.09-.64-.4-.14-.83-.19-1.25-.16-1.09-.06-2.17,.21-3.1,.77-.36,.23-.65,.54-.84,.92-.2,.37-.29,.79-.28,1.21v1.9h-9.45c0-.15-.02-.3-.05-.45-.03-.15-.04-.3-.05-.45,0-1.43,.37-2.82,1.07-4.07,.7-1.24,1.71-2.28,2.92-3.02,2.99-1.94,6.5-2.91,10.06-2.77,4.22,0,7.36,.88,9.42,2.64,2.06,1.76,3.09,4.47,3.08,8.12v14.65c0,2.3,.08,4.3,.24,6.01,.07,1.29,.29,2.56,.65,3.8h-9.37c-.27-.5-.46-1.04-.58-1.59-.16-.74-.27-1.5-.31-2.26h0Zm-.29-4.69v-8.92c-2.51,.97-4.82,2.36-6.85,4.12-.61,.6-1.09,1.32-1.41,2.11-.32,.79-.48,1.64-.46,2.49-.06,.89,.21,1.77,.75,2.48,.26,.29,.59,.52,.95,.68,.36,.15,.76,.22,1.15,.19,1.16-.03,2.29-.33,3.31-.88,1.02-.55,1.9-1.33,2.56-2.28h0Zm-41.42,8.56v-34.38h9.45v4.67c1.09-1.6,2.57-2.89,4.29-3.78,1.75-.87,3.68-1.31,5.63-1.27h.95v7.18c-.46-.16-.93-.27-1.41-.34-.54-.08-1.09-.12-1.64-.11-2.02-.11-4.02,.41-5.73,1.48-.66,.44-1.2,1.05-1.57,1.76-.36,.71-.54,1.5-.52,2.3v22.48l-9.45,.02Zm-29.57,0v-46.58h27.31v6.73h-16.84v12.21h12.13v6.73h-12.13v20.9h-10.47Z"/><path class="d" d="M1102.12,77.07l3.83-.37c.12,1.08,.62,2.08,1.4,2.83,.81,.64,1.82,.96,2.85,.9,1.02,.08,2.03-.21,2.86-.8,.3-.22,.54-.5,.71-.83,.16-.33,.25-.69,.26-1.05,.01-.43-.13-.85-.41-1.18-.39-.4-.88-.69-1.41-.84-.46-.16-1.51-.44-3.15-.85-1.61-.29-3.13-.95-4.44-1.93-.57-.48-1.02-1.08-1.33-1.76-.32-.68-.47-1.42-.47-2.16,0-.99,.3-1.96,.85-2.78,.59-.89,1.44-1.58,2.43-1.97,1.22-.48,2.52-.71,3.83-.68,1.98-.15,3.93,.42,5.52,1.61,.62,.53,1.11,1.19,1.44,1.93,.34,.74,.51,1.55,.51,2.36l-3.93,.17c-.08-.83-.47-1.6-1.09-2.16-.73-.49-1.61-.72-2.49-.66-.94-.06-1.88,.19-2.68,.7-.2,.13-.36,.31-.47,.52-.11,.21-.16,.45-.15,.68,0,.23,.05,.45,.15,.66,.1,.21,.25,.38,.43,.52,1.11,.66,2.34,1.1,3.61,1.3,1.47,.3,2.89,.77,4.25,1.4,.88,.45,1.62,1.14,2.15,1.98,.53,.96,.8,2.04,.78,3.14-.03,1.1-.35,2.17-.93,3.1-.63,.98-1.55,1.74-2.63,2.17-1.36,.51-2.8,.75-4.24,.71-2.04,.14-4.05-.47-5.68-1.71-1.39-1.29-2.24-3.07-2.36-4.97h0Z"/><path class="d" d="M1121.21,83.4v-19.48h5.88l3.54,13.29,3.49-13.29h5.9v19.48h-3.65v-15.33l-3.87,15.33h-3.79l-3.85-15.33v15.33h-3.65Z"/><g><path class="d" d="M241.33,199.67l-1.64-1.18c5.45-7.57,7.23-13.8,5.47-19.03-3.78-11.2-23.47-18.01-48.83-25.74-2.16-.66-4.35-1.32-6.58-2C134.98,135.15,59.97,112.46,59.97,30.31v-.91c.03-3.56-2.01-6.95-5.08-8.44-1.45-.71-4.32-1.55-7.25,.78C17.4,45.73,.05,81.22,.05,119.1,.05,188.39,58.07,244.76,129.39,244.76c48.96,0,89.16-16.86,110.3-46.27l1.64,1.18h0Z"/><path class="d" d="M250.35,72.28c-8.84-21.35-23.82-39.6-43.04-52.44C188.09,6.99,165.5,.14,142.39,.14c-29.04,0-56.96,10.82-78.39,30.21,.34,42.09,21.29,68.06,48.9,85.6,.55-.66,1.37-1.08,2.29-1.08h9.72c1.66-.01,3,1.33,3,2.99v6.55c3.01,1.51,6.06,2.94,9.13,4.31v-6.37c0-1.66,1.33-3,2.99-3l18.18-.02c1.66,0,3,1.34,3,3v15.76s0,.05,0,.08c6.73,2.34,13.43,4.47,19.93,6.47v-2.65c0-1.66,1.34-3,2.99-3h9.41c1.66-.01,3,1.33,3,2.99v7.35c.55,.17,1.11,.34,1.65,.5,2.22,.68,4.4,1.35,6.53,2.02h4.53c1.46,0,2.67,1.03,2.94,2.41,1.72,.57,3.4,1.15,5.04,1.73v-2.82c0-1.66,1.34-3,3-3h9.41c1.66,0,3,1.33,3,2.99v7.87c0,.43-.09,.83-.25,1.2,5.69,2.83,10.21,5.92,13.22,9.46,5.29-9.98,9.13-20.72,11.36-31.91,4.51-22.67,2.19-46.16-6.65-67.52Zm-68.42,24.14h9.72c1.66,0,3,1.33,3,2.99v8.15c0,1.66-1.33,3-2.99,3h-9.72c-1.66,.01-3-1.33-3-2.99v-8.15c0-1.66,1.33-3,2.99-3Zm-36.11-11.18h9.71c1.66,0,3,1.33,3,2.99v8.14c0,1.66-1.33,3-2.99,3h-9.72c-1.66,.01-3-1.33-3-2.99v-8.14c0-1.66,1.33-3,2.99-3Zm-17.47,20.54h-9.41c-1.66,0-3-1.33-3-2.99v-7.87c0-1.66,1.33-3,2.99-3h9.41c1.66,0,3,1.33,3,2.99v7.87c0,1.66-1.34,3-2.99,3Zm15.72,9.6h-5.79c-1.66,0-3-1.34-3-2.99v-4.61c0-1.66,1.34-3,2.99-3h5.79c1.66,0,3,1.34,3,2.99v4.61c0,1.66-1.34,3-2.99,3Zm10.98,1.58c-1.66,0-3-1.34-3-3v-7.87c0-1.66,1.34-3,2.99-3h9.41c1.66-.01,3,1.33,3,2.99v7.87c0,1.66-1.33,3-2.99,3h-9.41Zm16.75,12.26h-5.79c-1.66,0-3-1.33-3-2.99v-4.61c0-1.66,1.34-3,2.99-3h5.79c1.66,0,3,1.34,3,2.99v4.61c0,1.66-1.34,3-2.99,3Zm26.66,5.71l-18.18,.02c-1.66,0-3-1.34-3-3v-15.76c-.02-1.66,1.33-3,2.98-3l18.18-.02c1.66,0,3,1.34,3,3v15.76c.02,1.66-1.33,3-2.98,3Zm8.54-9.79v-5c0-1.66,1.34-3,3-3h6c1.66,0,3,1.34,3,3v5c0,1.66-1.34,3-3,3h-6c-1.66,0-3-1.34-3-3Zm13.75,21.34h-9.72c-1.66,.01-3-1.33-3-2.99v-8.15c0-1.66,1.34-3,2.99-3h9.72c1.66,0,3,1.33,3,2.99v8.14c0,1.66-1.33,3-2.99,3Zm23.7,2.27h-5.79c-1.66,0-3-1.34-3-2.99v-4.61c0-1.66,1.34-3,2.99-3h5.79c1.66,0,3,1.34,3,2.99v4.61c0,1.66-1.34,3-2.99,3Z"/></g></g></g></svg>