<?xml version="1.0" encoding="utf-8"?>
<!-- Generator: Adobe Illustrator 26.2.1, SVG Export Plug-In . SVG Version: 6.00 Build 0)  -->
<svg version="1.1" id="Layer_1" xmlns="http://www.w3.org/2000/svg" xmlns:xlink="http://www.w3.org/1999/xlink" x="0px" y="0px"
	 viewBox="0 0 1143 246" style="enable-background:new 0 0 1143 246;" xml:space="preserve">
<style type="text/css">
	.st0{clip-path:url(#SVGID_00000181076802383949305080000000427136085180230588_);}
	.st1{fill:#FFFFFF;}
</style>
<g>
	<defs>
		<rect id="SVGID_1_" x="0.3" width="1142" height="246.1"/>
	</defs>
	<clipPath id="SVGID_00000029038997708029587150000007904926789114414007_">
		<use xlink:href="#SVGID_1_"  style="overflow:visible;"/>
	</clipPath>
	<g style="clip-path:url(#SVGID_00000029038997708029587150000007904926789114414007_);">
		<path class="st1" d="M1102.2,123.1c0,18.5-5.6,33.8-16.8,45.7c-11.2,11.9-25.9,17.9-44.1,17.9c-8.4,0-15.7-1.5-21.9-4.6
			c-5.9-2.7-10.7-7.2-13.7-12.9v76.6h-37.9v-182h37.9v13.6c3.7-5.6,8.8-10,14.9-13c6.5-3.1,13.6-4.6,20.8-4.4
			c18.2,0,32.9,5.9,44.1,17.7C1096.6,89.3,1102.2,104.5,1102.2,123.1z M1064.4,123.1c0-9.3-2.8-17.2-8.4-23.6
			c-2.6-3.1-5.8-5.5-9.5-7.2c-3.7-1.7-7.6-2.5-11.7-2.4c-4-0.1-7.9,0.8-11.5,2.4c-3.6,1.6-6.8,4.1-9.3,7.1
			c-5.5,6.3-8.3,14.2-8.3,23.6c0,9.5,2.8,17.4,8.4,23.8c2.5,3.1,5.7,5.5,9.3,7.2s7.5,2.5,11.5,2.5c4,0.1,8-0.8,11.6-2.5
			c3.6-1.7,6.9-4.2,9.4-7.2C1061.6,140.4,1064.4,132.4,1064.4,123.1z M951.5,182.7h-37.9v-13.6c-3.7,5.6-8.8,10.1-14.8,13.1
			c-6.5,3.1-13.6,4.6-20.8,4.4c-18.2,0-32.9-5.9-44.1-17.7c-11.2-11.8-16.8-27-16.8-45.6c0-18.5,5.6-33.7,16.8-45.6
			c11.2-11.9,25.9-17.8,44.1-17.8c8.4,0,15.7,1.5,21.9,4.6c5.9,2.7,10.7,7.2,13.7,12.8V63.7h37.9L951.5,182.7z M913.6,123.3
			c0-9.4-2.8-17.3-8.4-23.7c-5.6-6.4-12.5-9.7-20.8-9.7c-3.9-0.1-7.8,0.8-11.4,2.4c-3.6,1.7-6.7,4.1-9.2,7.1
			c-5.5,6.4-8.3,14.4-8.2,23.8c0,9.5,2.7,17.4,8.2,23.8c2.5,3,5.7,5.5,9.3,7.1s7.5,2.5,11.5,2.4c4,0.1,7.9-0.8,11.5-2.4
			c3.6-1.7,6.8-4.1,9.3-7.2C910.8,140.6,913.6,132.7,913.6,123.3z M808.1,178.8c-4.8,2.7-9.9,4.7-15.2,6.1c-5.5,1.2-11,1.8-16.6,1.7
			c-22.2,0-39.9-5.8-53.1-17.3c-13.3-11.5-19.9-26.9-19.9-46c0-18.8,6.7-34.1,20-45.8c13.3-11.7,31-17.6,53-17.6
			c5.7-0.1,11.3,0.5,16.9,1.7c5.2,1.2,10.2,3.1,15,5.6V101c-3.9-3.6-8.4-6.3-13.3-8c-5.1-2-10.6-3-16.1-3.1
			c-10.6,0-19.5,3.2-26.5,9.5c-3.4,2.9-6.1,6.6-7.9,10.7c-1.8,4.1-2.7,8.5-2.6,13c0,10.3,3.3,18.4,10,24.4c6.6,6,15.6,9,27,9
			c5.6,0,11.1-1,16.3-3.1c4.9-1.9,9.4-4.8,13.1-8.5L808.1,178.8z M699.7,91.6h-18.6v91.1h-37.9V91.6h-14.9V63.7h14.9V25.2h37.9v38.5
			h18.6L699.7,91.6z M622.3,123c0,2.9,0,5.1,0,6.5c0,1.3-0.2,2.6-0.5,3.9h-91.1c1.6,7.1,5.4,13.6,10.8,18.4c5,4.6,11.6,7.1,18.3,7
			c5.6,0.1,11.1-1.3,16-4c4.6-2.5,8.4-6.3,10.8-11l30.4,13.6c-5.2,9.4-13.2,16.9-22.9,21.6c-10,5-21.7,7.5-35.4,7.5
			c-19.7,0-35.5-5.8-47.5-17.4c-11.9-11.6-17.9-27-17.9-46.1c0-17.9,6.2-32.9,18.6-45c12.4-12.2,27.7-18.2,45.9-18.2
			c18.9,0,34.4,6,46.4,17.9C616.3,89.6,622.3,104.7,622.3,123z M584.8,112.6c-1.7-7.8-4.9-13.9-9.7-18.4c-4.8-4.4-11-6.8-17.4-6.7
			c-6.4,0-12.7,2.5-17.4,6.9c-4.9,4.6-8.1,10.7-9.6,18.3L584.8,112.6z M482.6,182.7h-38.9l-95-123.3v123.3h-38.9V0h38.9l95,122.8V0
			h38.9V182.7z"/>
		<path class="st1" d="M922.7,235.4l9-1.4c0.2,1.6,0.9,3.1,2.1,4.3c1.2,0.9,2.6,1.4,4.1,1.3c1.1,0.1,2.2-0.2,3.1-0.8
			c0.4-0.2,0.7-0.6,0.9-0.9c0.2-0.4,0.3-0.8,0.3-1.3c0-1.8-3.2-4.3-9.5-7.6l-0.2-0.1c-2.5-1.2-4.8-2.8-6.7-4.8
			c-0.8-0.9-1.3-1.9-1.7-3s-0.4-2.3-0.2-3.4c0.2-1.1,0.6-2.2,1.2-3.2c0.6-1,1.5-1.8,2.5-2.4c2.6-1.7,5.9-2.6,10-2.6
			c3.3-0.2,6.5,0.7,9.4,2.4c1.1,0.7,2.1,1.7,2.8,2.8c0.7,1.1,1.1,2.4,1.2,3.7l-8.8,1.5c-0.2-1.2-0.8-2.4-1.7-3.3
			c-0.9-0.7-2-1-3.1-1.1c-1.1,0-2.2,0.2-3.2,0.8c-0.3,0.2-0.6,0.6-0.8,1c-0.2,0.4-0.3,0.8-0.3,1.2c0,1.5,2.2,3.5,6.6,5.8
			c1.2,0.7,2.1,1.2,2.8,1.5c2.6,1.4,5,3.2,7.1,5.3c1.2,1.4,1.9,3.2,1.9,5.1c0,1.4-0.3,2.7-1,3.9c-0.7,1.2-1.6,2.2-2.8,2.9
			c-2.6,1.7-5.9,2.6-10.1,2.6c-3.5,0.1-7-0.8-10-2.7c-1.3-0.9-2.4-2-3.2-3.3C923.5,238.3,923,236.9,922.7,235.4L922.7,235.4z
			 M902.8,237.4v-21.8H897v-5.3h5.8v-9.9h9.3v9.9h7v5.3h-7v21.2c0,0.4,0.1,0.9,0.2,1.3c0.2,0.4,0.5,0.7,0.8,1c0.9,0.6,2,0.8,3.1,0.7
			c0.4,0,0.8,0,1.2-0.1c0.5-0.1,1-0.1,1.6-0.2l0,5.6c-0.9,0.2-1.7,0.3-2.6,0.4c-0.9,0.1-1.8,0.1-2.8,0.1c-3.6,0-6.4-0.7-8.2-2
			c-0.9-0.7-1.6-1.7-2.1-2.7C902.9,239.8,902.7,238.6,902.8,237.4L902.8,237.4z M864.7,244.7v-34.4h9.4v3.8c1.6-1.3,3.4-2.4,5.3-3.1
			c1.7-0.7,3.5-1.1,5.3-1.1c1.8-0.1,3.5,0.4,4.9,1.5c0.6,0.6,1,1.3,1.3,2.1c0.3,0.8,0.4,1.6,0.3,2.4v28.8H882v-25.9
			c0.1-0.8-0.1-1.5-0.5-2.2c-0.6-0.4-1.2-0.6-1.9-0.5c-0.9,0.1-1.8,0.3-2.6,0.7c-1,0.5-2,1.1-2.8,1.8v26.1L864.7,244.7z
			 M846.8,240.8c-1.4,1.3-3.1,2.4-4.9,3.2c-1.8,0.7-3.6,1.1-5.5,1.1c-2.2,0.1-4.4-0.6-6-2c-0.7-0.7-1.3-1.6-1.7-2.6
			c-0.4-1-0.5-2-0.5-3c0-1.6,0.3-3.1,1-4.5c0.7-1.4,1.7-2.6,2.9-3.6c2.6-2.2,7.4-4.6,14.4-7.2v-3.7c0-0.4,0-0.9-0.2-1.3
			c-0.1-0.4-0.4-0.8-0.6-1.1c-0.3-0.3-0.7-0.5-1.1-0.6c-0.4-0.1-0.8-0.2-1.3-0.2c-1.1-0.1-2.2,0.2-3.1,0.8c-0.4,0.2-0.6,0.5-0.8,0.9
			c-0.2,0.4-0.3,0.8-0.3,1.2v1.9h-9.4c0-0.2,0-0.3-0.1-0.5c0-0.1,0-0.3,0-0.5c0-1.4,0.4-2.8,1.1-4.1c0.7-1.2,1.7-2.3,2.9-3
			c3-1.9,6.5-2.9,10.1-2.8c4.2,0,7.4,0.9,9.4,2.6c2.1,1.8,3.1,4.5,3.1,8.1v14.6c0,2.3,0.1,4.3,0.2,6c0.1,1.3,0.3,2.6,0.7,3.8h-9.4
			c-0.3-0.5-0.5-1-0.6-1.6C846.9,242.3,846.8,241.6,846.8,240.8L846.8,240.8z M846.5,236.1v-8.9c-2.5,1-4.8,2.4-6.9,4.1
			c-0.6,0.6-1.1,1.3-1.4,2.1c-0.3,0.8-0.5,1.6-0.5,2.5c-0.1,0.9,0.2,1.8,0.8,2.5c0.3,0.3,0.6,0.5,1,0.7c0.4,0.2,0.8,0.2,1.1,0.2
			c1.2,0,2.3-0.3,3.3-0.9C844.9,237.9,845.8,237.1,846.5,236.1L846.5,236.1z M807.3,237.4v-21.8h-5.8v-5.3h5.8v-9.9h9.3v9.9h7v5.3
			h-7v21.2c0,0.4,0.1,0.9,0.2,1.3c0.2,0.4,0.5,0.7,0.8,1c0.9,0.6,2,0.8,3.1,0.7c0.4,0,0.8,0,1.2-0.1c0.4-0.1,1-0.1,1.6-0.2l0,5.6
			c-0.9,0.2-1.7,0.3-2.6,0.4c-0.9,0.1-1.8,0.1-2.8,0.1c-3.6,0-6.4-0.7-8.2-2c-0.9-0.7-1.6-1.7-2.1-2.7
			C807.4,239.8,807.2,238.6,807.3,237.4L807.3,237.4z M786.3,244.7v-46.6h9.4v46.6L786.3,244.7z M777.2,210.3v34.4h-9.3v-3.8
			c-1.6,1.3-3.4,2.4-5.4,3.2c-1.7,0.7-3.6,1.1-5.4,1.1c-1.8,0.1-3.5-0.4-4.9-1.5c-0.6-0.6-1-1.3-1.3-2.1c-0.3-0.8-0.4-1.6-0.3-2.5
			v-28.8h9.4v26.4c0,0.3,0,0.6,0.1,0.9c0.1,0.3,0.3,0.6,0.5,0.8c0.5,0.4,1.2,0.6,1.9,0.5c0.9-0.1,1.8-0.3,2.6-0.7
			c1-0.5,2-1.1,2.9-1.8v-26.1L777.2,210.3z M715.4,235.4l9-1.4c0.2,1.6,0.9,3.1,2.1,4.3c1.2,0.9,2.6,1.4,4.1,1.3
			c1.1,0.1,2.2-0.2,3.1-0.8c0.4-0.2,0.7-0.6,0.9-0.9c0.2-0.4,0.3-0.8,0.3-1.3c0-1.8-3.2-4.3-9.5-7.6l-0.2-0.1
			c-2.5-1.2-4.8-2.8-6.7-4.8c-0.8-0.9-1.3-1.9-1.7-3s-0.4-2.3-0.2-3.4c0.2-1.1,0.6-2.2,1.2-3.2c0.6-1,1.5-1.8,2.5-2.4
			c2.5-1.7,5.9-2.6,10-2.6c3.3-0.2,6.5,0.7,9.4,2.4c1.1,0.7,2.1,1.7,2.8,2.8c0.7,1.1,1.1,2.4,1.2,3.7l-8.8,1.5
			c-0.2-1.2-0.8-2.4-1.7-3.3c-0.9-0.7-2-1-3.1-1.1c-1.1,0-2.2,0.2-3.2,0.8c-0.3,0.3-0.6,0.6-0.8,1c-0.2,0.4-0.3,0.8-0.3,1.2
			c0,1.5,2.2,3.5,6.6,5.8c1.2,0.7,2.1,1.2,2.8,1.5c2.6,1.4,5,3.2,7.1,5.3c1.2,1.4,1.9,3.2,1.9,5.1c0,1.4-0.3,2.7-1,3.9
			c-0.7,1.2-1.6,2.2-2.8,2.9c-2.6,1.7-5.9,2.6-10.1,2.6c-3.5,0.1-7-0.8-10-2.7c-1.3-0.9-2.4-2-3.2-3.3
			C716.2,238.3,715.6,236.9,715.4,235.4L715.4,235.4z M683,244.7v-34.4h9.4v3.8c1.6-1.3,3.4-2.4,5.3-3.1c1.7-0.7,3.5-1.1,5.3-1.1
			c1.8-0.1,3.5,0.4,4.9,1.5c0.6,0.6,1,1.3,1.3,2.1c0.3,0.8,0.4,1.6,0.3,2.4v28.8h-9.4v-25.9c0.1-0.8-0.1-1.5-0.5-2.2
			c-0.6-0.4-1.2-0.6-1.9-0.5c-0.9,0.1-1.8,0.3-2.6,0.7c-1,0.5-2,1.1-2.8,1.8v26.1L683,244.7z M647.9,218.2c0-1.3,0.3-2.6,1-3.7
			c0.7-1.1,1.6-2,2.8-2.7c2.5-1.6,5.9-2.4,10.1-2.4c3.3-0.1,6.6,0.7,9.5,2.5c1.1,0.7,2,1.6,2.7,2.7c0.6,1.1,1,2.4,1,3.7v17.8
			c0,1.4-0.3,2.7-0.9,3.9c-0.6,1.2-1.6,2.2-2.7,3c-2.4,1.7-5.7,2.5-10,2.5c-4.1,0-7.3-0.9-9.8-2.6c-1.2-0.8-2.1-1.8-2.7-3
			c-0.6-1.2-1-2.6-0.9-4V218.2z M657.5,236.6c0,0.4,0.1,0.8,0.2,1.2c0.2,0.4,0.4,0.7,0.8,1c0.8,0.6,1.8,0.8,2.8,0.8
			c1.1,0.1,2.1-0.2,3-0.8c0.4-0.2,0.6-0.6,0.8-0.9c0.2-0.4,0.3-0.8,0.3-1.2v-18.7c0-0.4-0.1-0.7-0.3-1.1c-0.2-0.3-0.5-0.6-0.8-0.7
			c-0.9-0.5-1.9-0.7-3-0.7c-1,0-1.9,0.2-2.7,0.7c-0.3,0.2-0.6,0.4-0.8,0.8c-0.2,0.3-0.3,0.7-0.3,1V236.6z M608.5,232.7v-23.9
			c-0.1-1.7,0.3-3.4,1.1-4.9c0.8-1.5,1.9-2.8,3.3-3.8c2.9-2.1,7-3.1,12.1-3.1c4.8,0,8.7,1.1,11.5,3.2c1.4,1,2.5,2.3,3.2,3.8
			c0.7,1.5,1.1,3.2,1,4.9v4.5H630v-5.1c0.1-0.7,0-1.3-0.3-2c-0.2-0.6-0.6-1.2-1.1-1.7c-1.2-0.8-2.6-1.2-4-1.2s-2.8,0.4-4,1.2
			c-0.5,0.5-0.8,1-1.1,1.7c-0.2,0.6-0.3,1.3-0.3,2v26c0,0.7,0,1.3,0.3,2c0.2,0.6,0.6,1.2,1.1,1.7c1.2,0.8,2.6,1.2,4,1.2
			s2.8-0.4,4-1.2c0.5-0.5,0.8-1,1.1-1.7c0.2-0.6,0.3-1.3,0.3-2v-6.3h10.8v4.9c0,4.1-1.4,7.2-4.2,9.4c-2.8,2.2-6.8,3.3-12,3.3
			c-5.3,0-9.3-1.1-12-3.3S608.5,237,608.5,232.7L608.5,232.7z M554.1,235v-15.4c0-1.5,0.3-2.9,1-4.2c0.7-1.3,1.7-2.4,2.9-3.1
			c3-2,6.6-3,10.2-2.8c4.3,0,7.5,0.9,9.8,2.6c1.1,0.9,2,2,2.6,3.3c0.6,1.3,0.9,2.7,0.8,4.2v8.8h-17.8v6.5c-0.1,1.3,0.2,2.6,0.9,3.7
			c0.4,0.4,0.9,0.7,1.5,0.9c0.5,0.2,1.1,0.2,1.7,0.2c1.1,0.1,2.3-0.2,3.2-0.9c0.6-0.6,0.9-1.9,0.9-3.9v-2.4h9.6v2.6
			c0,3.5-1.2,6.2-3.5,8c-2.3,1.8-5.8,2.7-10.5,2.7c-4.2,0-7.4-0.9-9.9-2.8c-1.2-0.9-2.1-2.1-2.7-3.5
			C554.3,237.9,554,236.5,554.1,235L554.1,235z M563.7,223h8.2v-3.5c0.1-0.6,0-1.1-0.2-1.6c-0.2-0.5-0.4-1-0.8-1.4
			c-0.9-0.7-2-1-3.1-0.9c-1.1-0.1-2.3,0.2-3.2,0.9c-0.4,0.4-0.6,0.9-0.8,1.4c-0.2,0.5-0.2,1.1-0.2,1.6V223z M519.6,235.4l9-1.4
			c0.2,1.6,0.9,3.1,2.1,4.3c1.2,0.9,2.6,1.4,4.1,1.3c1.1,0.1,2.2-0.2,3.1-0.8c0.4-0.2,0.7-0.6,0.9-0.9c0.2-0.4,0.3-0.8,0.3-1.3
			c0-1.8-3.2-4.3-9.5-7.6l-0.2-0.1c-2.5-1.2-4.8-2.8-6.7-4.8c-0.8-0.9-1.3-1.9-1.7-3c-0.3-1.1-0.4-2.3-0.2-3.4
			c0.2-1.1,0.6-2.2,1.2-3.2c0.6-1,1.5-1.8,2.5-2.4c2.6-1.7,5.9-2.6,10-2.6c3.3-0.2,6.5,0.7,9.4,2.4c1.1,0.7,2.1,1.7,2.8,2.8
			c0.7,1.1,1.1,2.4,1.2,3.7l-8.8,1.5c-0.2-1.2-0.8-2.4-1.7-3.3c-0.9-0.7-2-1-3.1-1.1c-1.1,0-2.2,0.2-3.2,0.8c-0.3,0.2-0.6,0.6-0.8,1
			c-0.2,0.4-0.3,0.8-0.3,1.2c0,1.5,2.2,3.5,6.6,5.8c1.2,0.7,2.1,1.2,2.8,1.5c2.6,1.4,5,3.2,7.1,5.3c1.2,1.4,1.9,3.2,1.9,5.1
			c0,1.4-0.3,2.7-1,3.9c-0.7,1.2-1.6,2.2-2.8,2.9c-2.6,1.7-5.9,2.6-10.1,2.6c-3.5,0.1-7-0.8-10-2.7c-1.3-0.9-2.4-2-3.2-3.3
			C520.4,238.3,519.9,236.9,519.6,235.4L519.6,235.4z M504.3,244.7v-34.4h9.5v34.4L504.3,244.7z M504.3,204.5v-6.4h9.5v6.4H504.3z
			 M468.7,244.7v-46.6h9.5v16c1.6-1.3,3.4-2.4,5.3-3.1c1.7-0.7,3.5-1.1,5.3-1.1c1.8-0.1,3.5,0.4,4.9,1.5c0.6,0.6,1,1.3,1.3,2.1
			c0.3,0.8,0.4,1.6,0.3,2.4v28.8h-9.4v-25.9c0.1-0.8-0.1-1.5-0.5-2.2c-0.6-0.4-1.2-0.6-1.9-0.5c-0.9,0.1-1.8,0.3-2.6,0.7
			c-1,0.5-2,1.1-2.8,1.8v26.1L468.7,244.7z M433.5,235v-15.2c0-1.5,0.3-3,1-4.3c0.7-1.3,1.7-2.4,2.9-3.3c2.6-1.9,6-2.8,10.2-2.8
			c4.2,0,7.4,0.9,9.8,2.7c1.2,0.9,2.1,2,2.7,3.3c0.6,1.3,0.9,2.7,0.8,4.2v2.7h-9.6v-2.8c0.1-0.6,0-1.1-0.2-1.6
			c-0.2-0.5-0.4-1-0.8-1.4c-0.9-0.7-2-1-3.1-0.9c-1.1-0.1-2.3,0.2-3.2,0.9c-0.4,0.4-0.6,0.9-0.8,1.4c-0.2,0.5-0.2,1.1-0.2,1.6v15.3
			c-0.1,1.3,0.2,2.6,0.9,3.8c0.4,0.4,0.9,0.7,1.5,0.9c0.5,0.2,1.1,0.2,1.7,0.2c1.1,0.1,2.3-0.2,3.2-0.9c0.6-0.6,0.9-1.9,0.9-3.9
			v-2.6h9.6v2.8c0,3.5-1.2,6.2-3.5,8c-2.3,1.8-5.8,2.7-10.5,2.7c-4.1,0-7.4-0.9-9.8-2.8c-1.2-0.9-2.1-2.1-2.8-3.4
			C433.8,237.9,433.5,236.5,433.5,235L433.5,235z M398.9,244.7v-34.4h9.4v3.8c1.6-1.3,3.4-2.4,5.3-3.1c1.7-0.7,3.5-1.1,5.3-1.1
			c1.8-0.1,3.5,0.4,4.9,1.5c0.6,0.6,1,1.3,1.3,2.1c0.3,0.8,0.4,1.6,0.3,2.4v28.8h-9.4v-25.9c0.1-0.8-0.1-1.5-0.5-2.2
			c-0.6-0.4-1.2-0.6-1.9-0.5c-0.9,0.1-1.8,0.3-2.6,0.7c-1,0.5-2,1.1-2.8,1.8v26.1L398.9,244.7z M381,240.8c-1.4,1.3-3.1,2.4-4.9,3.2
			c-1.8,0.7-3.6,1.1-5.5,1.1c-2.2,0.1-4.4-0.6-6-2c-0.7-0.7-1.3-1.6-1.7-2.6c-0.4-1-0.5-2-0.5-3c0-1.6,0.4-3.1,1-4.5
			c0.7-1.4,1.7-2.6,2.9-3.6c2.6-2.2,7.4-4.6,14.4-7.2v-3.7c0-0.4,0-0.9-0.2-1.3c-0.1-0.4-0.4-0.8-0.6-1.1c-0.3-0.3-0.7-0.5-1.1-0.6
			c-0.4-0.1-0.8-0.2-1.3-0.2c-1.1-0.1-2.2,0.2-3.1,0.8c-0.4,0.2-0.6,0.5-0.8,0.9c-0.2,0.4-0.3,0.8-0.3,1.2v1.9h-9.5
			c0-0.2,0-0.3,0-0.5c0-0.1,0-0.3,0-0.5c0-1.4,0.4-2.8,1.1-4.1c0.7-1.2,1.7-2.3,2.9-3c3-1.9,6.5-2.9,10.1-2.8c4.2,0,7.4,0.9,9.4,2.6
			c2.1,1.8,3.1,4.5,3.1,8.1v14.6c0,2.3,0.1,4.3,0.2,6c0.1,1.3,0.3,2.6,0.7,3.8h-9.4c-0.3-0.5-0.5-1-0.6-1.6
			C381.2,242.3,381.1,241.6,381,240.8L381,240.8z M380.7,236.1v-8.9c-2.5,1-4.8,2.4-6.9,4.1c-0.6,0.6-1.1,1.3-1.4,2.1
			c-0.3,0.8-0.5,1.6-0.5,2.5c-0.1,0.9,0.2,1.8,0.8,2.5c0.3,0.3,0.6,0.5,1,0.7c0.4,0.1,0.8,0.2,1.1,0.2c1.2,0,2.3-0.3,3.3-0.9
			C379.2,237.9,380.1,237.1,380.7,236.1L380.7,236.1z M339.3,244.7v-34.4h9.5v4.7c1.1-1.6,2.6-2.9,4.3-3.8c1.7-0.9,3.7-1.3,5.6-1.3
			h0.9v7.2c-0.5-0.2-0.9-0.3-1.4-0.3c-0.5-0.1-1.1-0.1-1.6-0.1c-2-0.1-4,0.4-5.7,1.5c-0.7,0.4-1.2,1-1.6,1.8
			c-0.4,0.7-0.5,1.5-0.5,2.3v22.5L339.3,244.7z M309.8,244.7v-46.6h27.3v6.7h-16.8V217h12.1v6.7h-12.1v20.9L309.8,244.7z"/>
		<path class="st1" d="M1102.4,77.1l3.8-0.4c0.1,1.1,0.6,2.1,1.4,2.8c0.8,0.6,1.8,1,2.8,0.9c1,0.1,2-0.2,2.9-0.8
			c0.3-0.2,0.5-0.5,0.7-0.8c0.2-0.3,0.2-0.7,0.3-1.1c0-0.4-0.1-0.8-0.4-1.2c-0.4-0.4-0.9-0.7-1.4-0.8c-0.5-0.2-1.5-0.4-3.2-0.9
			c-1.6-0.3-3.1-1-4.4-1.9c-0.6-0.5-1-1.1-1.3-1.8c-0.3-0.7-0.5-1.4-0.5-2.2c0-1,0.3-2,0.8-2.8c0.6-0.9,1.4-1.6,2.4-2
			c1.2-0.5,2.5-0.7,3.8-0.7c2-0.1,3.9,0.4,5.5,1.6c0.6,0.5,1.1,1.2,1.4,1.9c0.3,0.7,0.5,1.5,0.5,2.4l-3.9,0.2
			c-0.1-0.8-0.5-1.6-1.1-2.2c-0.7-0.5-1.6-0.7-2.5-0.7c-0.9-0.1-1.9,0.2-2.7,0.7c-0.2,0.1-0.4,0.3-0.5,0.5c-0.1,0.2-0.2,0.4-0.2,0.7
			c0,0.2,0,0.5,0.2,0.7c0.1,0.2,0.2,0.4,0.4,0.5c1.1,0.7,2.3,1.1,3.6,1.3c1.5,0.3,2.9,0.8,4.2,1.4c0.9,0.5,1.6,1.1,2.2,2
			c0.5,1,0.8,2,0.8,3.1c0,1.1-0.3,2.2-0.9,3.1c-0.6,1-1.5,1.7-2.6,2.2c-1.4,0.5-2.8,0.8-4.2,0.7c-2,0.1-4-0.5-5.7-1.7
			C1103.4,80.7,1102.5,79,1102.4,77.1L1102.4,77.1z"/>
		<path class="st1" d="M1121.5,83.4V63.9h5.9l3.5,13.3l3.5-13.3h5.9v19.5h-3.6V68.1l-3.9,15.3h-3.8l-3.8-15.3v15.3H1121.5z"/>
		<g>
			<g>
				<path class="st1" d="M241.6,199.7l-1.6-1.2c5.4-7.6,7.2-13.8,5.5-19c-3.8-11.2-23.5-18-48.8-25.7c-2.2-0.7-4.4-1.3-6.6-2
					C135.3,135.2,60.3,112.5,60.3,30.3l0-0.9c0-3.6-2-7-5.1-8.4c-1.5-0.7-4.3-1.5-7.2,0.8c-30.2,24-47.6,59.5-47.6,97.4
					c0,69.3,58,125.7,129.3,125.7c49,0,89.2-16.9,110.3-46.3L241.6,199.7L241.6,199.7C241.6,199.7,241.6,199.7,241.6,199.7z"/>
			</g>
			<g>
				<path class="st1" d="M250.7,72.3c-8.8-21.4-23.8-39.6-43-52.4C188.4,7,165.8,0.1,142.7,0.1c-29,0-57,10.8-78.4,30.2
					c0.3,42.1,21.3,68.1,48.9,85.6c0.5-0.7,1.4-1.1,2.3-1.1l9.7,0c1.7,0,3,1.3,3,3l0,6.6c3,1.5,6.1,2.9,9.1,4.3l0-6.4
					c0-1.7,1.3-3,3-3l18.2,0c1.7,0,3,1.3,3,3l0,15.8c0,0,0,0.1,0,0.1c6.7,2.3,13.4,4.5,19.9,6.5l0-2.7c0-1.7,1.3-3,3-3l9.4,0
					c1.7,0,3,1.3,3,3l0,7.4c0.5,0.2,1.1,0.3,1.6,0.5c2.2,0.7,4.4,1.3,6.5,2l4.5,0c1.5,0,2.7,1,2.9,2.4c1.7,0.6,3.4,1.2,5,1.7l0-2.8
					c0-1.7,1.3-3,3-3l9.4,0c1.7,0,3,1.3,3,3l0,7.9c0,0.4-0.1,0.8-0.3,1.2c5.7,2.8,10.2,5.9,13.2,9.5c5.3-10,9.1-20.7,11.4-31.9
					C261.8,117.1,259.5,93.6,250.7,72.3z M182.2,96.4l9.7,0c1.7,0,3,1.3,3,3l0,8.1c0,1.7-1.3,3-3,3l-9.7,0c-1.7,0-3-1.3-3-3l0-8.1
					C179.2,97.8,180.6,96.4,182.2,96.4z M146.1,85.2l9.7,0c1.7,0,3,1.3,3,3l0,8.1c0,1.7-1.3,3-3,3l-9.7,0c-1.7,0-3-1.3-3-3l0-8.1
					C143.1,86.6,144.5,85.2,146.1,85.2z M128.7,105.8l-9.4,0c-1.7,0-3-1.3-3-3l0-7.9c0-1.7,1.3-3,3-3l9.4,0c1.7,0,3,1.3,3,3l0,7.9
					C131.7,104.4,130.3,105.8,128.7,105.8z M144.4,115.4l-5.8,0c-1.7,0-3-1.3-3-3l0-4.6c0-1.7,1.3-3,3-3l5.8,0c1.7,0,3,1.3,3,3
					l0,4.6C147.4,114,146,115.4,144.4,115.4z M155.4,117c-1.7,0-3-1.3-3-3l0-7.9c0-1.7,1.3-3,3-3l9.4,0c1.7,0,3,1.3,3,3l0,7.9
					c0,1.7-1.3,3-3,3L155.4,117z M172.1,129.2l-5.8,0c-1.7,0-3-1.3-3-3l0-4.6c0-1.7,1.3-3,3-3l5.8,0c1.7,0,3,1.3,3,3l0,4.6
					C175.1,127.9,173.8,129.2,172.1,129.2z M198.8,134.9l-18.2,0c-1.7,0-3-1.3-3-3l0-15.8c0-1.7,1.3-3,3-3l18.2,0c1.7,0,3,1.3,3,3
					l0,15.8C201.8,133.6,200.4,134.9,198.8,134.9z M207.3,125.1v-5c0-1.7,1.3-3,3-3h3.3h2.7c1.7,0,3,1.3,3,3v5c0,1.7-1.3,3-3,3h-6
					C208.7,128.1,207.3,126.8,207.3,125.1z M221.1,146.5l-9.7,0c-1.7,0-3-1.3-3-3l0-8.1c0-1.7,1.3-3,3-3l9.7,0c1.7,0,3,1.3,3,3
					l0,8.1C224.1,145.1,222.7,146.5,221.1,146.5z M244.8,148.7l-5.8,0c-1.7,0-3-1.3-3-3l0-4.6c0-1.7,1.3-3,3-3l5.8,0
					c1.7,0,3,1.3,3,3l0,4.6C247.8,147.4,246.4,148.7,244.8,148.7z"/>
			</g>
		</g>
	</g>
</g>
</svg>
