<svg width="190" height="41" viewBox="0 0 190 41" fill="none" xmlns="http://www.w3.org/2000/svg">
<g clip-path="url(#clip0_275_524)">
<path d="M183.549 20.5132C183.549 23.603 182.619 26.141 180.761 28.1272C178.903 30.1133 176.461 31.1052 173.434 31.1028C172.039 31.1028 170.825 30.8468 169.792 30.335C168.816 29.886 168.015 29.1295 167.508 28.181V40.9452H161.206V10.61H167.508V12.879C168.126 11.9517 168.979 11.2058 169.979 10.7177C171.058 10.2071 172.24 9.9536 173.434 9.97717C176.461 9.97717 178.903 10.9601 180.761 12.9258C182.619 14.8916 183.549 17.4207 183.549 20.5132ZM177.27 20.5132C177.27 18.9578 176.805 17.6518 175.869 16.5813C175.438 16.0703 174.898 15.6619 174.291 15.3859C173.683 15.1099 173.021 14.9732 172.355 14.9858C171.695 14.9747 171.04 15.1115 170.44 15.3864C169.84 15.6613 169.309 16.0672 168.886 16.5745C167.965 17.6315 167.504 18.9443 167.508 20.5132C167.508 22.0882 167.971 23.412 168.901 24.4848C169.319 24.9952 169.846 25.4047 170.445 25.6832C171.043 25.9617 171.695 26.102 172.355 26.0938C173.021 26.1032 173.681 25.9628 174.286 25.6832C174.891 25.4033 175.428 24.9913 175.854 24.4772C176.798 23.394 177.27 22.0727 177.27 20.5132ZM158.501 30.4497H152.199V28.181C151.586 29.1152 150.735 29.8682 149.734 30.3622C148.652 30.8718 147.468 31.1253 146.273 31.1028C143.246 31.1028 140.803 30.1177 138.945 28.1475C137.087 26.1747 136.158 23.641 136.158 20.5465C136.158 17.4567 137.087 14.9233 138.945 12.9465C140.803 10.9674 143.246 9.97779 146.273 9.97767C147.666 9.97767 148.88 10.2313 149.913 10.7385C150.889 11.1804 151.693 11.933 152.199 12.8795V10.61H158.5L158.501 30.4497ZM152.199 20.5465C152.199 18.9847 151.735 17.6675 150.806 16.595C149.876 15.5245 148.73 14.9858 147.352 14.9858C146.697 14.9754 146.048 15.1134 145.454 15.3897C144.86 15.666 144.335 16.0734 143.92 16.5813C143.006 17.6518 142.549 18.9735 142.549 20.5465C142.549 22.1287 143.001 23.4482 143.905 24.505C144.323 25.0132 144.85 25.42 145.447 25.6952C146.044 25.9703 146.695 26.1065 147.352 26.0938C148.012 26.1053 148.667 25.968 149.267 25.6918C149.868 25.4158 150.399 25.008 150.821 24.4985C151.742 23.4282 152.199 22.1155 152.199 20.5465ZM134.667 29.8033C133.872 30.2488 133.023 30.5905 132.142 30.82C131.234 31.0213 130.306 31.1165 129.377 31.1033C125.691 31.1033 122.747 30.1428 120.544 28.2217C118.341 26.303 117.239 23.7448 117.239 20.547C117.239 17.4102 118.348 14.8632 120.566 12.906C122.784 10.9537 125.721 9.97755 129.377 9.97767C130.319 9.96563 131.258 10.0582 132.179 10.2537C133.043 10.4607 133.879 10.7727 134.667 11.1827V16.8378C134.026 16.2443 133.272 15.7883 132.449 15.498C131.596 15.1659 130.69 14.9925 129.774 14.9863C128.006 14.9863 126.54 15.5114 125.376 16.5615C124.815 17.0527 124.368 17.661 124.067 18.3437C123.765 19.0265 123.617 19.7672 123.631 20.5137C123.631 22.2237 124.185 23.5767 125.286 24.5867C126.388 25.5897 127.884 26.0922 129.775 26.0943C130.703 26.0967 131.623 25.923 132.487 25.5827C133.307 25.2723 134.051 24.7878 134.667 24.1623L134.667 29.8033ZM116.648 15.2617H113.553V30.4497H107.252V15.2617H104.771V10.61H107.252V4.201H113.553V10.61H116.648L116.648 15.2617ZM103.775 20.5062C103.775 20.9912 103.775 21.3545 103.768 21.5895C103.761 21.8092 103.733 22.0278 103.685 22.2423H88.5418C88.8048 23.4297 89.434 24.5037 90.3401 25.3123C91.1749 26.071 92.2629 26.4888 93.3896 26.4837C94.3223 26.4977 95.2422 26.2655 96.0571 25.8105C96.8255 25.3967 97.4502 24.7582 97.8482 23.98L102.898 26.2488C102.026 27.8083 100.701 29.0647 99.0992 29.8503C97.4432 30.685 95.4875 31.1028 93.2179 31.1028C89.9435 31.1028 87.3136 30.1335 85.3281 28.1947C83.3427 26.2558 82.3513 23.6953 82.3538 20.5132C82.3538 17.5375 83.3851 15.0375 85.4478 13.0132C87.5084 10.9867 90.0534 9.97462 93.0827 9.97683C96.2294 9.97683 98.7995 10.9687 100.793 12.9523C102.779 14.9386 103.773 17.4565 103.775 20.5062ZM97.5416 18.7693C97.2645 17.47 96.7278 16.4467 95.9311 15.6995C95.141 14.9728 94.1068 14.5713 93.0347 14.5751C91.9627 14.5788 90.9312 14.9875 90.1463 15.7197C89.3372 16.4803 88.8028 17.497 88.543 18.7697L97.5416 18.7693ZM80.5555 30.4497H74.0822L58.2951 9.90317V30.4497H51.822V-0.000335693H58.2951L74.0822 20.472V0.000167847H80.5555V30.4497Z" fill="white"/>
<path d="M153.712 39.2263L155.214 38.9955C155.249 39.2653 155.369 39.5167 155.558 39.7122C155.749 39.8677 155.992 39.9453 156.238 39.93C156.422 39.9395 156.605 39.8915 156.761 39.7927C156.822 39.7537 156.872 39.6993 156.906 39.6352C156.941 39.5708 156.958 39.4988 156.956 39.426C156.956 39.1292 156.429 38.7065 155.377 38.1582L155.336 38.1383C154.918 37.9438 154.538 37.6745 154.216 37.3435C154.088 37.1987 153.993 37.0275 153.938 36.8418C153.883 36.6562 153.869 36.4607 153.898 36.2692C153.926 36.0777 153.996 35.8947 154.103 35.7333C154.21 35.5718 154.35 35.436 154.515 35.335C154.94 35.0495 155.493 34.9067 156.175 34.9065C156.721 34.8813 157.262 35.0198 157.73 35.3042C157.917 35.4222 158.074 35.582 158.19 35.771C158.305 35.9602 158.375 36.1733 158.395 36.3942L156.925 36.6362C156.888 36.4285 156.788 36.2375 156.637 36.0903C156.488 35.9813 156.31 35.9192 156.126 35.9117C155.941 35.9042 155.759 35.9518 155.602 36.0483C155.544 36.09 155.498 36.1453 155.467 36.2093C155.436 36.2732 155.421 36.3438 155.423 36.415C155.423 36.6662 155.791 36.9905 156.527 37.388C156.725 37.4977 156.879 37.584 156.988 37.6443C157.427 37.8732 157.828 38.1693 158.176 38.5218C158.383 38.7572 158.496 39.0603 158.496 39.374C158.497 39.6023 158.439 39.827 158.328 40.0258C158.216 40.2245 158.054 40.3907 157.858 40.5073C157.434 40.7912 156.873 40.9335 156.176 40.934C155.59 40.9572 155.012 40.8 154.519 40.484C154.306 40.3408 154.124 40.1555 153.986 39.9393C153.847 39.723 153.755 39.4807 153.713 39.227L153.712 39.2263ZM150.398 39.5717V35.9417H149.438V35.051H150.398V33.4042H151.945V35.051H153.102V35.9417H151.945V39.4683C151.94 39.5403 151.954 39.6122 151.985 39.6773C152.016 39.7425 152.063 39.7987 152.121 39.8405C152.275 39.9323 152.454 39.9752 152.633 39.9633C152.697 39.9628 152.762 39.9585 152.825 39.9503C152.9 39.941 152.991 39.9267 153.094 39.9097L153.102 40.843C152.958 40.8752 152.812 40.8987 152.665 40.913C152.518 40.9273 152.366 40.9347 152.204 40.9347C151.598 40.9347 151.148 40.8212 150.849 40.5938C150.696 40.4732 150.575 40.317 150.496 40.1387C150.417 39.9603 150.383 39.7655 150.397 39.571L150.398 39.5717ZM144.068 40.7788V35.0508H145.639V35.6797C145.906 35.4617 146.205 35.2848 146.524 35.1555C146.807 35.0412 147.108 34.9802 147.412 34.976C147.708 34.9532 148 35.0435 148.232 35.2288C148.329 35.3282 148.403 35.447 148.451 35.5775C148.498 35.708 148.517 35.8472 148.506 35.9857V40.7782H146.951V36.4583C146.966 36.3315 146.934 36.2035 146.86 36.0993C146.769 36.0283 146.653 35.9955 146.538 36.0078C146.389 36.0173 146.243 36.0583 146.111 36.1285C145.941 36.2102 145.782 36.3138 145.639 36.4365V40.7783L144.068 40.7788ZM141.092 40.1358C140.852 40.3607 140.574 40.5402 140.27 40.6655C139.979 40.7895 139.666 40.8537 139.35 40.8543C138.985 40.8772 138.626 40.7598 138.344 40.526C138.222 40.4052 138.127 40.2593 138.066 40.0985C138.005 39.9377 137.979 39.7655 137.99 39.5937C137.989 39.3337 138.048 39.0768 138.161 38.843C138.274 38.609 138.439 38.4042 138.643 38.2437C139.078 37.8737 139.878 37.4737 141.044 37.0437V36.425C141.048 36.3542 141.039 36.283 141.016 36.2158C140.993 36.1485 140.957 36.0865 140.911 36.0332C140.858 35.9858 140.796 35.9495 140.73 35.9267C140.663 35.9037 140.592 35.8947 140.521 35.8998C140.34 35.8895 140.161 35.9343 140.006 36.0282C139.947 36.0663 139.899 36.119 139.866 36.1813C139.833 36.2435 139.817 36.3132 139.819 36.3835V36.7002H138.249C138.248 36.6748 138.245 36.6497 138.24 36.6248C138.236 36.6 138.233 36.5748 138.232 36.5497C138.233 36.3122 138.294 36.079 138.411 35.8722C138.527 35.6653 138.694 35.4917 138.896 35.3682C139.393 35.0448 139.977 34.8835 140.569 34.9063C141.27 34.9063 141.792 35.053 142.134 35.3463C142.477 35.6397 142.647 36.091 142.647 36.7002V39.1417C142.647 39.525 142.66 39.8583 142.687 40.144C142.698 40.3587 142.735 40.5713 142.796 40.7773H141.239C141.194 40.694 141.162 40.6045 141.142 40.5118C141.115 40.3878 141.098 40.2618 141.091 40.1352L141.092 40.1358ZM141.044 39.3525V37.8665C140.627 38.0278 140.242 38.2603 139.905 38.5537C139.803 38.6537 139.724 38.7732 139.67 38.9048C139.617 39.0367 139.59 39.178 139.593 39.3203C139.584 39.4688 139.628 39.6158 139.718 39.734C139.762 39.783 139.816 39.8213 139.876 39.8465C139.937 39.8715 140.002 39.8827 140.067 39.879C140.26 39.8743 140.448 39.8243 140.618 39.733C140.787 39.6417 140.933 39.5115 141.043 39.3533L141.044 39.3525ZM134.533 39.5723V35.9417H133.571V35.051H134.531V33.4042H136.079V35.051H137.236V35.9417H136.079V39.4683C136.074 39.5402 136.088 39.612 136.118 39.677C136.149 39.7422 136.196 39.7983 136.254 39.8405C136.409 39.9322 136.587 39.9748 136.766 39.9633C136.831 39.9628 136.895 39.9585 136.958 39.9503C137.033 39.941 137.124 39.9267 137.228 39.9097L137.236 40.843C137.091 40.8752 136.945 40.8987 136.798 40.913C136.652 40.9273 136.499 40.9347 136.337 40.9347C135.731 40.9347 135.28 40.821 134.982 40.5938C134.829 40.473 134.709 40.3167 134.63 40.1383C134.552 39.9602 134.518 39.7653 134.532 39.571L134.533 39.5723ZM131.041 40.7795V33.0173H132.612V40.7782L131.041 40.7795ZM129.534 35.0522V40.7795H127.988V40.1512C127.72 40.3738 127.418 40.5532 127.095 40.6825C126.807 40.8003 126.501 40.8625 126.19 40.8658C125.898 40.8883 125.607 40.7973 125.379 40.6117C125.282 40.5107 125.208 40.39 125.16 40.2578C125.113 40.1257 125.094 39.985 125.105 39.845V35.0508H126.66V39.4462C126.655 39.4997 126.661 39.5535 126.678 39.6043C126.695 39.6553 126.722 39.702 126.759 39.7415C126.849 39.81 126.961 39.8427 127.073 39.8328C127.225 39.823 127.373 39.782 127.508 39.7122C127.681 39.6315 127.843 39.5278 127.988 39.4042V35.0508L129.534 35.0522ZM119.249 39.2277L120.751 38.9968C120.786 39.2665 120.907 39.5178 121.095 39.7135C121.286 39.869 121.529 39.9468 121.775 39.9313C121.959 39.9408 122.142 39.8928 122.298 39.794C122.359 39.7548 122.41 39.7007 122.444 39.6363C122.478 39.5722 122.494 39.5 122.493 39.4273C122.493 39.1305 121.966 38.7078 120.913 38.1595L120.873 38.1397C120.455 37.9448 120.075 37.6755 119.753 37.3448C119.624 37.2 119.529 37.0288 119.474 36.8432C119.419 36.6575 119.405 36.462 119.434 36.2705C119.462 36.0788 119.533 35.896 119.639 35.7345C119.746 35.5732 119.887 35.4372 120.052 35.3363C120.476 35.0508 121.029 34.908 121.711 34.9078C122.257 34.8827 122.798 35.0212 123.265 35.3055C123.453 35.4235 123.61 35.5833 123.725 35.7723C123.841 35.9615 123.911 36.1747 123.93 36.3955L122.461 36.6375C122.424 36.4298 122.323 36.239 122.173 36.0917C122.024 35.9827 121.846 35.9205 121.662 35.913C121.477 35.9055 121.295 35.953 121.138 36.0497C121.08 36.0915 121.034 36.1467 121.003 36.2107C120.972 36.2747 120.957 36.3452 120.959 36.4163C120.959 36.6675 121.327 36.9918 122.064 37.3893C122.261 37.499 122.416 37.5853 122.525 37.6457C122.964 37.8747 123.364 38.1708 123.712 38.5232C123.919 38.7585 124.033 39.0617 124.032 39.3753C124.034 39.6035 123.976 39.8282 123.864 40.027C123.752 40.2258 123.59 40.3918 123.395 40.5087C122.97 40.7925 122.409 40.9348 121.711 40.9353C121.126 40.9585 120.548 40.8013 120.055 40.4853C119.841 40.3422 119.66 40.1565 119.521 39.94C119.382 39.7233 119.289 39.4805 119.248 39.2263L119.249 39.2277ZM113.863 40.7795V35.0508H115.434V35.6797C115.702 35.4618 116 35.2852 116.32 35.1555C116.603 35.041 116.904 34.9802 117.208 34.976C117.503 34.953 117.796 35.0435 118.027 35.2288C118.124 35.328 118.198 35.447 118.246 35.5775C118.293 35.708 118.312 35.8472 118.302 35.9857V40.7782H116.747V36.4583C116.762 36.3315 116.73 36.2035 116.656 36.0993C116.564 36.0283 116.448 35.9957 116.333 36.0083C116.184 36.0178 116.039 36.059 115.907 36.129C115.737 36.2108 115.578 36.3143 115.434 36.437V40.7788L113.863 40.7795ZM108.027 36.3628C108.026 36.1462 108.084 35.9332 108.194 35.7467C108.304 35.56 108.462 35.4065 108.651 35.3023C109.07 35.0402 109.631 34.9088 110.332 34.908C110.887 34.8843 111.436 35.0293 111.908 35.3238C112.094 35.4338 112.248 35.5902 112.356 35.7777C112.463 35.9653 112.52 36.1777 112.521 36.394V39.3528C112.528 39.5807 112.477 39.8063 112.371 40.0082C112.266 40.21 112.11 40.3812 111.919 40.505C111.519 40.7853 110.967 40.9253 110.263 40.9248C109.585 40.9248 109.043 40.7803 108.638 40.4915C108.446 40.3662 108.289 40.1937 108.182 39.9903C108.075 39.787 108.022 39.5597 108.027 39.3298V36.3628ZM109.63 39.4367C109.627 39.5065 109.64 39.5762 109.669 39.64C109.698 39.7037 109.741 39.7597 109.796 39.8033C109.932 39.8977 110.097 39.9428 110.263 39.9317C110.438 39.9408 110.611 39.8947 110.759 39.7997C110.817 39.7597 110.865 39.7053 110.897 39.6418C110.929 39.5785 110.945 39.5078 110.943 39.4367V36.317C110.942 36.2543 110.924 36.193 110.891 36.1398C110.858 36.0865 110.811 36.0433 110.756 36.015C110.605 35.9318 110.434 35.8918 110.263 35.8995C110.103 35.8925 109.944 35.9327 109.807 36.015C109.753 36.0452 109.709 36.089 109.678 36.1422C109.647 36.1952 109.631 36.2555 109.63 36.317V39.4367ZM101.479 38.7882V34.8083C101.469 34.5267 101.531 34.2473 101.658 33.996C101.785 33.7445 101.973 33.5293 102.205 33.3702C102.69 33.024 103.361 32.8507 104.216 32.85C105.022 32.85 105.661 33.0278 106.135 33.3833C106.362 33.55 106.546 33.7702 106.669 34.0245C106.792 34.2788 106.851 34.5595 106.841 34.842V35.5877H105.05V34.7338C105.059 34.6228 105.043 34.5113 105.004 34.407C104.964 34.3028 104.903 34.2085 104.823 34.1308C104.624 33.9997 104.39 33.9298 104.151 33.9298C103.912 33.9298 103.679 33.9997 103.479 34.1308C103.4 34.2087 103.338 34.3028 103.299 34.4072C103.26 34.5113 103.244 34.6228 103.252 34.7338V39.065C103.244 39.1768 103.26 39.2892 103.299 39.3942C103.338 39.4992 103.4 39.5945 103.479 39.6735C103.678 39.8058 103.912 39.8765 104.151 39.8765C104.39 39.8765 104.624 39.8058 104.823 39.6735C104.903 39.5945 104.964 39.4993 105.003 39.3942C105.043 39.2892 105.058 39.1768 105.05 39.065V38.0083H106.84V38.8203C106.84 39.4995 106.607 40.0233 106.142 40.3918C105.676 40.7603 105.013 40.9448 104.152 40.9455C103.272 40.9455 102.606 40.7628 102.154 40.3975C101.703 40.0322 101.478 39.4952 101.478 38.7865L101.479 38.7882ZM92.4369 39.1638V36.5917C92.4353 36.3498 92.4946 36.1115 92.6093 35.8988C92.7242 35.6862 92.8906 35.506 93.0934 35.375C93.5952 35.043 94.189 34.8788 94.7897 34.9057C95.4965 34.9057 96.0429 35.0502 96.4223 35.3402C96.6114 35.4867 96.7622 35.6772 96.8616 35.8952C96.961 36.1132 97.0059 36.352 96.9926 36.5913V38.0513H94.0394V39.1307C94.0174 39.3503 94.0713 39.5708 94.192 39.7553C94.2613 39.8197 94.3436 39.8685 94.4332 39.8985C94.5228 39.9285 94.6179 39.939 94.7118 39.9293C94.9019 39.9488 95.0926 39.8957 95.2455 39.7807C95.3468 39.684 95.3971 39.4657 95.3971 39.1307V38.733H96.9929V39.1615C96.9929 39.7498 96.799 40.192 96.4111 40.4878C96.0233 40.7837 95.4437 40.9322 94.6722 40.9332C93.9787 40.9332 93.4346 40.7757 93.0347 40.4602C92.8392 40.3072 92.6829 40.1095 92.5789 39.8838C92.4748 39.658 92.426 39.4107 92.4364 39.1622L92.4369 39.1638ZM94.0399 37.1638H95.3976V36.5832C95.4064 36.491 95.3968 36.398 95.3692 36.3097C95.3418 36.2212 95.2971 36.1392 95.2376 36.0683C95.0936 35.9518 94.9101 35.8962 94.7259 35.913C94.5372 35.8952 94.3489 35.9507 94.2 36.0683C94.1404 36.1392 94.0957 36.2212 94.0681 36.3095C94.0407 36.398 94.0311 36.491 94.0399 36.5832V37.1638ZM86.7078 39.2287L88.2096 38.9978C88.2443 39.2677 88.365 39.519 88.5536 39.7145C88.745 39.87 88.9877 39.9477 89.2335 39.9323C89.4179 39.9418 89.6006 39.8938 89.7565 39.795C89.8178 39.756 89.868 39.7017 89.9021 39.6373C89.9363 39.5732 89.9535 39.5012 89.9516 39.4283C89.9516 39.1315 89.4252 38.7088 88.3725 38.1605L88.3326 38.1407C87.9142 37.9462 87.5347 37.6768 87.2125 37.3458C87.0842 37.201 86.9893 37.0298 86.9342 36.8442C86.8792 36.6585 86.8654 36.463 86.894 36.2715C86.9224 36.08 86.9926 35.897 87.0993 35.7357C87.206 35.5742 87.3468 35.4382 87.5117 35.3373C87.9361 35.0518 88.4878 34.9088 89.171 34.9088C89.7171 34.8837 90.2583 35.0222 90.7258 35.3065C90.9129 35.4245 91.0702 35.5843 91.1855 35.7733C91.3009 35.9625 91.3711 36.1757 91.3907 36.3965L89.921 36.6385C89.8845 36.4307 89.7836 36.2397 89.6326 36.0927C89.4837 35.9837 89.306 35.9213 89.1217 35.9138C88.9375 35.9063 88.7553 35.954 88.598 36.0507C88.5405 36.0923 88.494 36.1477 88.4627 36.2115C88.4315 36.2755 88.4165 36.3462 88.419 36.4173C88.419 36.6685 88.7872 36.9928 89.5236 37.3903C89.7209 37.5 89.8755 37.5863 89.9849 37.6467C90.4236 37.8757 90.8242 38.1718 91.1723 38.5242C91.3789 38.7597 91.4926 39.0627 91.4921 39.3763C91.4937 39.6047 91.4357 39.8293 91.3239 40.0282C91.212 40.227 91.0501 40.393 90.8544 40.5097C90.4304 40.7935 89.8693 40.9358 89.1717 40.9363C88.5866 40.9593 88.0084 40.8023 87.5149 40.4863C87.3013 40.3432 87.1193 40.1573 86.9803 39.9405C86.8415 39.7238 86.7486 39.4807 86.7073 39.2263L86.7078 39.2287ZM84.1604 40.7805V35.0508H85.7314V40.7782L84.1604 40.7805ZM84.1604 34.088V33.0197H85.7314V34.088H84.1604ZM78.2524 40.7805V33.0173H79.8236V35.6797C80.0911 35.4617 80.3895 35.285 80.709 35.1555C80.9914 35.041 81.2926 34.9802 81.5971 34.976C81.8922 34.953 82.1849 35.0435 82.416 35.2288C82.5129 35.328 82.5875 35.447 82.6349 35.5775C82.6823 35.708 82.7014 35.8472 82.6907 35.9857V40.7782H81.1358V36.4583C81.1513 36.3315 81.1189 36.2035 81.0451 36.0993C80.9533 36.0282 80.8378 35.9953 80.7224 36.0078C80.5731 36.0173 80.4277 36.0585 80.2955 36.1285C80.1257 36.2102 79.9669 36.3138 79.8236 36.4365V40.7783L78.2524 40.7805ZM72.4011 39.1638V36.6342C72.3955 36.387 72.4515 36.1423 72.5644 35.9225C72.6771 35.7028 72.843 35.5147 73.0468 35.3757C73.4762 35.0622 74.0398 34.9057 74.7378 34.9063C75.4312 34.9063 75.9728 35.0548 76.3669 35.3518C76.5587 35.4947 76.7126 35.6823 76.8154 35.8985C76.9181 36.1147 76.9665 36.3527 76.9563 36.592V37.042H75.3605V36.5802C75.3693 36.488 75.3599 36.395 75.3324 36.3065C75.3048 36.2182 75.2601 36.1362 75.2006 36.0653C75.0565 35.9488 74.873 35.8932 74.6886 35.91C74.5001 35.892 74.3118 35.9477 74.1632 36.0653C74.1035 36.1362 74.0586 36.2182 74.0312 36.3065C74.0036 36.395 73.994 36.488 74.0028 36.5802V39.1283C73.9808 39.3487 74.0347 39.5698 74.1552 39.7553C74.2245 39.8197 74.3068 39.8685 74.3964 39.8985C74.4862 39.9285 74.5811 39.939 74.6752 39.9293C74.8652 39.949 75.0557 39.8958 75.2083 39.7807C75.3098 39.684 75.3605 39.4657 75.3605 39.1283V38.689H76.9563V39.1615C76.9563 39.7483 76.7623 40.1903 76.3745 40.4878C75.9852 40.7847 75.4054 40.9332 74.6353 40.9332C73.9474 40.9332 73.4033 40.775 73.0029 40.4585C72.8064 40.3063 72.6492 40.1093 72.5443 39.8838C72.4394 39.6583 72.3898 39.4108 72.3998 39.1622L72.4011 39.1638ZM66.648 40.7805V35.0508H68.2187V35.6797C68.4863 35.4617 68.785 35.285 69.1047 35.1555C69.3871 35.041 69.6881 34.9802 69.9927 34.976C70.2877 34.953 70.5803 35.0435 70.8113 35.2288C70.9082 35.328 70.9829 35.447 71.0304 35.5775C71.0778 35.708 71.0968 35.8472 71.0861 35.9857V40.7782H69.5312V36.4583C69.5467 36.3315 69.5144 36.2035 69.4406 36.0993C69.3488 36.0282 69.2332 35.9955 69.1178 36.0078C68.9685 36.0173 68.8229 36.0585 68.6908 36.1285C68.5209 36.2105 68.3621 36.314 68.2187 36.4365V40.7783L66.648 40.7805ZM63.671 40.1375C63.4313 40.3622 63.153 40.5417 62.8496 40.6672C62.5586 40.791 62.2457 40.8553 61.9295 40.856C61.5648 40.879 61.2051 40.7615 60.9239 40.5277C60.8015 40.4068 60.7064 40.2612 60.6451 40.1002C60.5839 39.9393 60.558 39.7672 60.569 39.5953C60.5685 39.3353 60.6271 39.0787 60.7403 38.8447C60.8537 38.6108 61.0186 38.4058 61.2226 38.2453C61.6574 37.8753 62.4577 37.4753 63.6231 37.0453V36.425C63.6277 36.3542 63.6184 36.283 63.5957 36.2158C63.5727 36.1485 63.537 36.0865 63.4901 36.0332C63.4376 35.9857 63.3759 35.9495 63.3089 35.9265C63.2419 35.9037 63.1711 35.8945 63.1005 35.8998C62.9198 35.8893 62.7401 35.9342 62.5851 36.0282C62.526 36.0662 62.4778 36.1188 62.445 36.1812C62.4123 36.2433 62.3961 36.3132 62.3983 36.3835V36.7002H60.8273C60.8266 36.6748 60.8238 36.6497 60.8191 36.6248C60.8146 36.6 60.8122 36.5748 60.8115 36.5497C60.8122 36.3122 60.8735 36.079 60.9897 35.8722C61.106 35.6652 61.2733 35.4917 61.4754 35.3682C61.9719 35.0448 62.5562 34.8835 63.1478 34.9063C63.8493 34.9063 64.3713 35.053 64.7137 35.3463C65.0561 35.6397 65.2269 36.091 65.2259 36.7002V39.1417C65.2259 39.525 65.2392 39.8583 65.2659 40.144C65.2771 40.3587 65.3136 40.5713 65.3748 40.7773H63.8174C63.7727 40.694 63.7404 40.6045 63.7213 40.5118C63.6944 40.3878 63.6771 40.2618 63.6696 40.1352L63.671 40.1375ZM63.6231 39.3542V37.8682C63.2067 38.0295 62.8214 38.262 62.4842 38.5553C62.383 38.6552 62.3031 38.7747 62.2494 38.9065C62.1958 39.0382 62.1696 39.1797 62.1722 39.322C62.1629 39.4705 62.2073 39.6173 62.2974 39.7357C62.341 39.7845 62.395 39.823 62.4555 39.8482C62.5158 39.8732 62.5812 39.8843 62.6465 39.8807C62.839 39.876 63.0277 39.826 63.1972 39.7347C63.3669 39.6433 63.5127 39.5133 63.6229 39.355L63.6231 39.3542ZM56.7387 40.7812V35.0508H58.3099V35.8298C58.4918 35.564 58.7364 35.3475 59.0222 35.1995C59.3128 35.0543 59.6338 34.9817 59.9582 34.9872H60.1155V36.1832C60.0393 36.157 59.9609 36.1382 59.8811 36.1267C59.7908 36.1135 59.6997 36.1073 59.6086 36.1083C59.2734 36.09 58.9407 36.1763 58.6567 36.3557C58.5464 36.4295 58.4567 36.5303 58.396 36.6487C58.3353 36.767 58.3057 36.8987 58.3099 37.0317V40.7782L56.7387 40.7812ZM51.8233 40.7812V33.0173H56.3629V34.1388H53.5636V36.1742H55.5797V37.2953H53.5636V40.7787L51.8233 40.7812Z" fill="white"/>
<path d="M183.589 12.8442L184.225 12.7822C184.245 12.9618 184.328 13.1286 184.458 13.2538C184.593 13.3598 184.76 13.4131 184.932 13.4038C185.101 13.4164 185.269 13.3692 185.407 13.2705C185.457 13.2342 185.497 13.187 185.525 13.1327C185.552 13.0784 185.567 13.0184 185.568 12.9573C185.57 12.8861 185.547 12.8165 185.5 12.7615C185.435 12.6951 185.354 12.6466 185.266 12.6208C185.189 12.594 185.015 12.5467 184.742 12.479C184.475 12.4301 184.222 12.3202 184.004 12.1578C183.909 12.0778 183.835 11.9777 183.783 11.8648C183.73 11.7519 183.705 11.6289 183.705 11.5047C183.705 11.3395 183.755 11.1781 183.846 11.0408C183.944 10.8927 184.086 10.778 184.25 10.7118C184.453 10.6318 184.669 10.5934 184.887 10.5992C185.216 10.5749 185.54 10.67 185.804 10.8668C185.907 10.9558 185.989 11.0658 186.044 11.1893C186.1 11.3127 186.129 11.4468 186.129 11.5823L185.475 11.611C185.462 11.4727 185.397 11.3444 185.294 11.2512C185.173 11.1695 185.026 11.1309 184.88 11.1417C184.724 11.1323 184.568 11.1731 184.435 11.2583C184.401 11.2805 184.375 11.3105 184.357 11.3457C184.338 11.3809 184.33 11.4201 184.332 11.4597C184.332 11.4978 184.34 11.5355 184.357 11.5697C184.373 11.6039 184.398 11.6337 184.428 11.6568C184.613 11.7662 184.817 11.8397 185.028 11.8735C185.272 11.9232 185.508 12.0015 185.735 12.1068C185.881 12.1822 186.004 12.2962 186.092 12.4367C186.18 12.5964 186.225 12.7771 186.222 12.96C186.217 13.1429 186.163 13.3212 186.067 13.4763C185.962 13.6399 185.809 13.7666 185.63 13.8385C185.404 13.9238 185.164 13.964 184.925 13.9568C184.586 13.9794 184.252 13.8784 183.981 13.6725C183.75 13.457 183.609 13.1605 183.589 12.8442Z" fill="white"/>
<path d="M186.762 13.9003V10.6542H187.739L188.328 12.8687L188.908 10.6542H189.889V13.9003H189.282V11.345L188.639 13.9003H188.009L187.369 11.345V13.9003H186.762Z" fill="white"/>
<path fill-rule="evenodd" clip-rule="evenodd" d="M23.8323 0C27.6747 3.29635e-05 31.4309 1.14248 34.6257 3.28287C37.8206 5.42327 40.3107 8.46547 41.7812 12.0248C43.2515 15.5841 43.6363 19.5007 42.8866 23.2792C42.1371 27.0577 40.2866 30.5285 37.5696 33.2527C34.8526 35.9768 31.3909 37.8322 27.6223 38.5837C23.8537 39.3353 19.9475 38.9495 16.3975 37.4753C12.8475 36.001 9.81327 33.5043 7.67849 30.301C5.54372 27.0978 4.40427 23.3317 4.40424 19.4792C4.4048 14.3132 6.45186 9.35888 10.0952 5.70595C13.7386 2.05302 18.6798 0.00057452 23.8323 0Z" fill="white"/>
<path fill-rule="evenodd" clip-rule="evenodd" d="M8.3388 18.8715C8.33858 18.5953 8.56169 18.3713 8.83712 18.3712L10.4026 18.37C10.678 18.3698 10.9014 18.5935 10.9016 18.8695L10.9029 20.182C10.9031 20.4582 10.68 20.6822 10.4046 20.6825L8.83893 20.6837C8.56351 20.684 8.34004 20.4603 8.33983 20.1842L8.3388 18.8715ZM30.2763 23.646C30.2762 23.37 30.4992 23.146 30.7745 23.1457L32.3396 23.1442C32.6152 23.1438 32.8386 23.3675 32.8388 23.6438L32.8399 24.9558C32.8401 25.232 32.617 25.456 32.3416 25.4563L30.7765 25.4577C30.5011 25.458 30.2777 25.2343 30.2775 24.9582L30.2763 23.646ZM25.4372 17.6607C25.4371 17.3845 25.66 17.1607 25.9354 17.1603L27.4998 17.1588C27.7754 17.1585 27.9988 17.3822 27.999 17.6585L28.0002 18.97C28.0003 19.2462 27.7772 19.4702 27.5018 19.4705L25.9371 19.4717C25.6616 19.472 25.4381 19.2482 25.4379 18.972L25.4372 17.6607ZM14.3419 20.7362C14.3416 20.46 14.5647 20.236 14.8402 20.2358L16.4056 20.2345C16.6809 20.2343 16.9044 20.458 16.9047 20.7342L16.9059 22.0467C16.9062 22.3228 16.6829 22.547 16.4075 22.5472L14.842 22.5483C14.5667 22.5485 14.3432 22.3248 14.343 22.0487L14.3419 20.7362ZM36.279 25.5103C36.2789 25.2342 36.5019 25.0102 36.7774 25.01L38.3423 25.0087C38.6177 25.0085 38.8411 25.2322 38.8415 25.5083L38.8426 26.821C38.843 27.0972 38.6199 27.3212 38.3444 27.3213L36.7792 27.3227C36.5038 27.3228 36.2804 27.0992 36.2802 26.823L36.279 25.5103ZM22.9428 20.372C22.9425 20.0958 23.1655 19.8718 23.441 19.8717L26.4635 19.8692C26.739 19.869 26.9624 20.0927 26.9626 20.3688L26.9649 22.996C26.965 23.2722 26.742 23.4962 26.4665 23.4963L23.4441 23.4988C23.1687 23.499 22.9453 23.2753 22.945 22.9992L22.9428 20.372ZM11.8477 23.4477C11.8475 23.1715 12.0706 22.9475 12.346 22.9473L15.368 22.9447C15.6435 22.9445 15.8669 23.1682 15.8671 23.4443L15.8692 26.071C15.8694 26.3472 15.6463 26.5712 15.3709 26.5715L12.3489 26.574C12.0735 26.5743 11.85 26.3507 11.8498 26.0745L11.8477 23.4477ZM21.1706 28.0498C21.1705 27.7737 21.3935 27.5497 21.669 27.5495L22.6813 27.5487C22.9568 27.5485 23.1802 27.7722 23.1803 28.0483L23.1808 28.8622C23.181 29.1383 22.9579 29.3623 22.6825 29.3625L21.6703 29.3632C21.3949 29.3633 21.1715 29.1397 21.1713 28.8635L21.1706 28.0498ZM29.6317 19.3412C29.6315 19.065 29.8546 18.841 30.13 18.8408L33.1521 18.8382C33.4275 18.838 33.6509 19.0617 33.6513 19.3378L33.6536 21.9652C33.6539 22.2413 33.4309 22.4653 33.1554 22.4655L30.133 22.468C29.8576 22.4682 29.6342 22.2445 29.634 21.9683L29.6317 19.3412ZM18.5364 22.4168C18.5361 22.1407 18.7591 21.9167 19.0346 21.9165L22.057 21.914C22.3324 21.9138 22.5558 22.1375 22.556 22.4137L22.5581 25.0407C22.5583 25.3168 22.3352 25.5408 22.0598 25.541L19.0377 25.5435C18.7623 25.5437 18.5389 25.32 18.5386 25.0438L18.5364 22.4168ZM25.7908 25.3153C25.7906 25.0392 26.0137 24.8152 26.2892 24.815L28.4069 24.8135C28.6824 24.8133 28.9058 25.037 28.9059 25.3132L28.9074 27.1242C28.9076 27.4003 28.6845 27.6243 28.4091 27.6247L26.2915 27.6263C26.016 27.6267 25.7926 27.403 25.7925 27.1268L25.7908 25.3153ZM22.6506 17.94C22.6502 17.6638 22.8733 17.4398 23.1488 17.4395L24.1109 17.4388C24.3863 17.4385 24.6097 17.6622 24.6101 17.9383L24.6106 18.7072C24.6109 18.9833 24.3878 19.2073 24.1124 19.2075L23.1503 19.2083C22.875 19.2085 22.6516 18.9848 22.6512 18.7088L22.6506 17.94ZM11.5552 21.0162C11.5549 20.7398 11.7781 20.5158 12.0535 20.5157L13.0158 20.515C13.2912 20.5148 13.5146 20.7385 13.5149 21.0145L13.5155 21.7827C13.5158 22.0588 13.2926 22.2828 13.0172 22.283L12.0549 22.2838C11.7795 22.284 11.5561 22.0603 11.5558 21.7842L11.5552 21.0162ZM33.492 25.7902C33.4917 25.514 33.7148 25.29 33.9902 25.2898L34.9529 25.289C35.2283 25.2888 35.4517 25.5125 35.4519 25.7887L35.4524 26.5568C35.4525 26.8328 35.2295 27.0568 34.9542 27.0572L33.9917 27.0578C33.7163 27.0582 33.4929 26.8345 33.4925 26.5583L33.492 25.7902ZM27.2606 20.2468C27.2604 19.9708 27.4835 19.7468 27.7588 19.7465L28.7211 19.7457C28.9965 19.7453 29.2201 19.9692 29.2203 20.2453L29.2208 21.0135C29.2209 21.2895 28.9979 21.5135 28.7226 21.5138L27.7605 21.5147C27.4848 21.515 27.2614 21.2913 27.2613 21.015L27.2606 20.2468ZM16.1655 23.3222C16.1653 23.046 16.3885 22.822 16.664 22.8218L17.6261 22.8212C17.9014 22.821 18.1248 23.0447 18.1251 23.3207L18.1256 24.0893C18.126 24.3657 17.9029 24.5897 17.6273 24.5898L16.6652 24.5905C16.3898 24.5907 16.1664 24.367 16.1662 24.0908L16.1655 23.3222ZM39.3408 23.5008C39.3405 23.2247 39.5636 23.0007 39.839 23.0003L40.8013 22.9997C41.0767 22.9993 41.3002 23.223 41.3005 23.4992L41.301 24.2675C41.3013 24.5437 41.0782 24.7677 40.8028 24.7678L39.8405 24.7687C39.5651 24.7688 39.3416 24.5452 39.3413 24.269L39.3408 23.5008ZM7.29523 22.3928C7.29499 22.1167 7.51811 21.8927 7.79353 21.8925L10.1302 21.8907C10.4056 21.8905 10.6291 22.1142 10.6293 22.3903L10.6309 24.3987C10.6312 24.6748 10.4081 24.8988 10.1327 24.8992L7.79603 24.9012C7.5206 24.9015 7.29712 24.6778 7.29689 24.4017L7.29523 22.3928ZM23.9048 14.6844C23.9044 14.4082 24.1275 14.1842 24.403 14.1839L26.018 14.1826C26.2935 14.1824 26.5169 14.406 26.5172 14.6821L26.5184 16.0395C26.5187 16.3156 26.2956 16.5397 26.0202 16.54L24.405 16.5414C24.1295 16.5416 23.9061 16.318 23.9058 16.0418L23.9048 14.6844ZM12.8095 17.7597C12.8093 17.4835 13.0324 17.2595 13.3078 17.2593L14.923 17.258C15.1984 17.2578 15.4218 17.4815 15.4221 17.7575L15.4234 19.1148C15.4237 19.391 15.2006 19.615 14.9252 19.6153L13.3097 19.6167C13.0343 19.617 12.8108 19.3933 12.8106 19.1172L12.8095 17.7597ZM34.7466 22.5337C34.7466 22.2577 34.9696 22.0337 35.2449 22.0335L36.8605 22.0323C37.1359 22.0322 37.3594 22.2558 37.3595 22.532L37.3607 23.8893C37.3609 24.1655 37.1378 24.3895 36.8623 24.3898L35.2464 24.3912C34.971 24.3915 34.7474 24.1677 34.7474 23.8915L34.7466 22.5337ZM29.9075 16.5485C29.9073 16.2723 30.1304 16.0483 30.4058 16.0481L32.0212 16.0468C32.2967 16.0465 32.5201 16.2702 32.5204 16.5463L32.5216 17.904C32.5219 18.1802 32.2988 18.4042 32.0234 18.4045L30.4076 18.4058C30.1322 18.4062 29.9088 18.1825 29.9086 17.9063L29.9075 16.5485ZM18.8123 19.625C18.812 19.3488 19.0351 19.1248 19.3105 19.1247L20.9258 19.1232C21.2012 19.123 21.4246 19.3467 21.425 19.6228L21.426 20.9803C21.4263 21.2565 21.2032 21.4805 20.9278 21.4807L19.3127 21.482C19.0372 21.4822 18.8138 21.2585 18.8135 20.9823L18.8123 19.625ZM35.1058 20.4782C35.1055 20.202 35.3285 19.978 35.604 19.9778L35.913 19.9775C36.1883 19.9773 36.4117 20.201 36.412 20.477L36.4122 20.656C36.4125 20.9322 36.1894 21.1562 35.914 21.1565L35.605 21.1567C35.3295 21.157 35.1061 20.9333 35.1058 20.6572V20.4782ZM19.4344 15.7969C19.434 15.5207 19.6571 15.2967 19.9326 15.2964L21.4971 15.2951C21.7725 15.2949 21.9961 15.5186 21.9963 15.7948L21.9971 17.1067C21.9973 17.3827 21.7742 17.6067 21.4989 17.607L19.9345 17.6082C19.6591 17.6085 19.4357 17.3848 19.4354 17.1087L19.4344 15.7969Z" fill="#120647"/>
<path d="M10.1314 4.70917C10.131 4.76038 10.1309 4.8115 10.1309 4.8625C10.1309 12.0582 13.5653 16.5647 18.1412 19.6019C22.3206 22.3759 27.476 23.9392 31.8162 25.2552C32.1903 25.3687 32.5583 25.4803 32.9191 25.5906C34.4839 26.0694 35.9102 26.5237 37.1249 27.0051C38.3446 27.4884 39.3147 27.9854 39.9862 28.5354C40.6498 29.0789 40.9836 29.6408 41.0248 30.2669C41.0672 30.9107 40.8085 31.7322 40.0416 32.8016C36.2271 38.1204 29.1691 40.4452 21.8375 40.4452C10.0427 40.4452 0.5 31.1265 0.5 19.6632C0.5 13.1733 3.55559 7.37449 8.34943 3.5605C8.71075 3.27304 9.12772 3.28639 9.48612 3.50984C9.85661 3.74084 10.1351 4.18644 10.1314 4.70917Z" fill="white" stroke="#120647"/>
<path d="M34.5757 20C34.5757 19.7238 34.7989 19.5 35.0744 19.5H35.6164H36.0717C36.3472 19.5 36.5704 19.7238 36.5704 20V20.8333C36.5704 21.1095 36.3472 21.3333 36.0717 21.3333H35.0744C34.7989 21.3333 34.5757 21.1095 34.5757 20.8333V20Z" fill="#120647"/>
</g>
<defs>
<clipPath id="clip0_275_524">
<rect width="190" height="41" fill="white"/>
</clipPath>
</defs>
</svg>
