<svg width="153" height="32" viewBox="0 0 153 32" fill="none" xmlns="http://www.w3.org/2000/svg">
<g clip-path="url(#clip0_454_38)">
<path d="M147.805 16.0103C147.805 18.4219 147.057 20.4028 145.56 21.9529C144.064 23.5031 142.097 24.2772 139.66 24.2754C138.537 24.2754 137.56 24.0756 136.727 23.6761C135.941 23.3257 135.296 22.7352 134.888 21.9949V31.9572H129.813V8.28099H134.888V10.0519C135.386 9.32815 136.072 8.746 136.878 8.36503C137.747 7.9665 138.699 7.76868 139.66 7.78708C142.097 7.78708 144.064 8.5542 145.56 10.0885C147.057 11.6227 147.805 13.5966 147.805 16.0103ZM142.749 16.0103C142.749 14.7964 142.374 13.7771 141.621 12.9415C141.274 12.5427 140.839 12.2239 140.351 12.0085C139.861 11.7931 139.328 11.6864 138.791 11.6963C138.26 11.6876 137.732 11.7944 137.249 12.0089C136.766 12.2235 136.339 12.5403 135.997 12.9362C135.256 13.7612 134.885 14.7858 134.888 16.0103C134.888 17.2396 135.261 18.2728 136.01 19.1101C136.347 19.5084 136.771 19.8281 137.253 20.0454C137.735 20.2628 138.26 20.3723 138.791 20.3659C139.328 20.3732 139.859 20.2637 140.347 20.0454C140.834 19.827 141.266 19.5055 141.609 19.1042C142.369 18.2588 142.749 17.2275 142.749 16.0103ZM127.635 23.7656H122.561V21.9949C122.067 22.7241 121.381 23.3118 120.576 23.6973C119.704 24.0951 118.751 24.293 117.788 24.2754C115.351 24.2754 113.383 23.5065 111.887 21.9688C110.391 20.429 109.643 18.4515 109.643 16.0363C109.643 13.6247 110.391 11.6475 111.887 10.1046C113.384 8.55993 115.351 7.78756 117.788 7.78747C118.91 7.78747 119.887 7.98541 120.72 8.38129C121.506 8.72617 122.153 9.31357 122.56 10.0523V8.28099H127.634L127.635 23.7656ZM122.561 16.0363C122.561 14.8173 122.187 13.7893 121.439 12.9522C120.69 12.1167 119.767 11.6963 118.657 11.6963C118.13 11.6881 117.607 11.7959 117.129 12.0115C116.65 12.2271 116.228 12.5451 115.894 12.9415C115.157 13.7771 114.789 14.8086 114.79 16.0363C114.79 17.2712 115.154 18.301 115.881 19.1259C116.218 19.5225 116.642 19.84 117.123 20.0548C117.604 20.2695 118.128 20.3758 118.657 20.3659C119.189 20.3749 119.716 20.2677 120.2 20.0522C120.683 19.8368 121.111 19.5185 121.451 19.1208C122.193 18.2854 122.561 17.2609 122.561 16.0363ZM108.442 23.2612C107.802 23.6089 107.119 23.8755 106.409 24.0547C105.678 24.2118 104.931 24.2861 104.183 24.2758C101.215 24.2758 98.8435 23.5261 97.0695 22.0267C95.2957 20.5292 94.4088 18.5326 94.4085 16.0367C94.4085 13.5884 95.3015 11.6006 97.0874 10.073C98.8734 8.54922 101.238 7.78737 104.183 7.78747C104.941 7.77807 105.698 7.85032 106.439 8.00288C107.135 8.16449 107.808 8.40798 108.442 8.72795V13.1417C107.927 12.6785 107.319 12.3226 106.657 12.096C105.97 11.8368 105.24 11.7015 104.503 11.6967C103.079 11.6967 101.898 12.1065 100.961 12.9261C100.509 13.3094 100.149 13.7842 99.9066 14.317C99.6638 14.85 99.544 15.4281 99.5555 16.0107C99.5555 17.3453 100.002 18.4013 100.889 19.1896C101.775 19.9724 102.98 20.3646 104.503 20.3663C105.25 20.3681 105.991 20.2326 106.687 19.967C107.348 19.7248 107.947 19.3466 108.443 18.8584L108.442 23.2612ZM93.9321 11.9116H91.4401V23.7656H86.3659V11.9116H84.3687V8.28099H86.3659V3.27885H91.4401V8.28099H93.9323L93.9321 11.9116ZM83.5665 16.0048C83.5665 16.3834 83.5665 16.6669 83.5604 16.8504C83.555 17.0218 83.5328 17.1925 83.4941 17.3599H71.2996C71.5114 18.2866 72.018 19.1248 72.7477 19.756C73.4199 20.3481 74.296 20.6742 75.2033 20.6702C75.9544 20.6811 76.6952 20.4999 77.3514 20.1448C77.9702 19.8218 78.4732 19.3235 78.7937 18.7161L82.86 20.4869C82.1579 21.7041 81.091 22.6846 79.8011 23.2978C78.4676 23.9493 76.8928 24.2754 75.0651 24.2754C72.4283 24.2754 70.3105 23.5188 68.7117 22.0056C67.1129 20.4924 66.3146 18.4939 66.3166 16.0103C66.3166 13.6878 67.1471 11.7366 68.8081 10.1566C70.4674 8.57502 72.5168 7.78509 74.9562 7.78682C77.4902 7.78682 79.5597 8.56093 81.165 10.1092C82.7642 11.6594 83.5645 13.6246 83.5665 16.0048ZM78.5468 14.6493C78.3237 13.6351 77.8915 12.8365 77.2499 12.2533C76.6137 11.6861 75.7809 11.3728 74.9175 11.3757C74.0543 11.3786 73.2237 11.6976 72.5916 12.269C71.9401 12.8627 71.5098 13.6562 71.3006 14.6495L78.5468 14.6493ZM64.8685 23.7656H59.6558L46.943 7.72932V23.7656H41.7305V-0.000244141H46.943L59.6558 15.9782V0.000148866H64.8685V23.7656Z" fill="white"/>
<path d="M123.779 30.6157L124.988 30.4355C125.016 30.6461 125.113 30.8423 125.265 30.9949C125.419 31.1162 125.615 31.1769 125.813 31.1649C125.961 31.1723 126.108 31.1348 126.234 31.0577C126.283 31.0273 126.323 30.9849 126.351 30.9348C126.379 30.8846 126.392 30.8284 126.391 30.7715C126.391 30.5399 125.967 30.21 125.119 29.782L125.087 29.7665C124.75 29.6147 124.444 29.4045 124.185 29.1462C124.081 29.0331 124.005 28.8995 123.961 28.7546C123.916 28.6097 123.905 28.4571 123.928 28.3077C123.951 28.1582 124.008 28.0154 124.094 27.8894C124.18 27.7634 124.293 27.6574 124.426 27.5785C124.767 27.3557 125.213 27.2442 125.762 27.2441C126.202 27.2245 126.637 27.3326 127.014 27.5545C127.165 27.6466 127.291 27.7713 127.384 27.9188C127.477 28.0665 127.534 28.2329 127.549 28.4052L126.366 28.5941C126.336 28.432 126.255 28.2829 126.134 28.1681C126.014 28.083 125.871 28.0345 125.722 28.0286C125.574 28.0228 125.427 28.06 125.3 28.1353C125.254 28.1678 125.217 28.211 125.192 28.261C125.167 28.3108 125.155 28.3659 125.157 28.4215C125.157 28.6175 125.453 28.8706 126.046 29.1809C126.205 29.2665 126.329 29.3339 126.417 29.381C126.77 29.5596 127.093 29.7907 127.373 30.0658C127.54 30.2495 127.631 30.4861 127.631 30.7309C127.632 30.9092 127.585 31.0845 127.495 31.2397C127.405 31.3947 127.275 31.5244 127.117 31.6155C126.776 31.837 126.324 31.9481 125.762 31.9485C125.291 31.9666 124.826 31.8439 124.428 31.5973C124.257 31.4855 124.111 31.3409 123.999 31.1722C123.888 31.0033 123.813 30.8142 123.78 30.6162L123.779 30.6157ZM121.11 30.8852V28.052H120.337V27.3569H121.11V26.0716H122.356V27.3569H123.288V28.052H122.356V30.8046C122.352 30.8608 122.363 30.9168 122.388 30.9677C122.413 31.0185 122.45 31.0624 122.498 31.095C122.622 31.1667 122.766 31.2001 122.91 31.1909C122.962 31.1905 123.013 31.1871 123.065 31.1808C123.125 31.1735 123.198 31.1623 123.281 31.149L123.288 31.8775C123.172 31.9026 123.054 31.9209 122.936 31.9321C122.817 31.9433 122.695 31.949 122.564 31.949C122.076 31.949 121.714 31.8604 121.473 31.683C121.35 31.5888 121.252 31.4669 121.189 31.3278C121.126 31.1886 121.098 31.0365 121.109 30.8847L121.11 30.8852ZM116.013 31.8274V27.3568H117.278V27.8476C117.493 27.6774 117.733 27.5394 117.991 27.4385C118.218 27.3492 118.461 27.3016 118.706 27.2984C118.944 27.2805 119.179 27.351 119.365 27.4957C119.444 27.5732 119.504 27.666 119.542 27.7678C119.58 27.8697 119.595 27.9783 119.587 28.0864V31.8269H118.334V28.4553C118.347 28.3563 118.321 28.2564 118.261 28.1751C118.187 28.1197 118.095 28.0941 118.002 28.1037C117.882 28.1111 117.764 28.1431 117.658 28.1979C117.521 28.2616 117.393 28.3425 117.278 28.4383V31.827L116.013 31.8274ZM113.616 31.3255C113.423 31.501 113.199 31.6411 112.954 31.7389C112.72 31.8357 112.468 31.8858 112.213 31.8863C111.92 31.9041 111.63 31.8126 111.404 31.6301C111.305 31.5358 111.229 31.4219 111.179 31.2964C111.13 31.1709 111.109 31.0365 111.118 30.9024C111.118 30.6995 111.165 30.499 111.256 30.3165C111.347 30.1339 111.48 29.974 111.645 29.8487C111.994 29.5599 112.638 29.2478 113.577 28.9121V28.4293C113.581 28.374 113.573 28.3185 113.555 28.266C113.537 28.2135 113.508 28.1651 113.47 28.1235C113.428 28.0865 113.378 28.0582 113.324 28.0403C113.27 28.0224 113.213 28.0154 113.156 28.0194C113.011 28.0113 112.866 28.0463 112.742 28.1196C112.694 28.1493 112.655 28.1905 112.629 28.2391C112.603 28.2876 112.59 28.342 112.591 28.3969V28.644H111.327C111.326 28.6243 111.324 28.6046 111.32 28.5852C111.316 28.5659 111.314 28.5462 111.314 28.5266C111.314 28.3412 111.363 28.1592 111.457 27.9978C111.551 27.8364 111.685 27.7008 111.848 27.6044C112.248 27.3521 112.719 27.2262 113.195 27.244C113.76 27.244 114.18 27.3585 114.456 27.5874C114.731 27.8163 114.869 28.1686 114.868 28.644V30.5496C114.868 30.8488 114.879 31.109 114.901 31.3319C114.909 31.4995 114.939 31.6654 114.988 31.8262H113.734C113.698 31.7612 113.672 31.6913 113.657 31.619C113.635 31.5222 113.621 31.4239 113.615 31.325L113.616 31.3255ZM113.577 30.7142V29.5544C113.242 29.6803 112.932 29.8617 112.66 30.0907C112.579 30.1687 112.514 30.262 112.471 30.3648C112.428 30.4677 112.407 30.578 112.409 30.6891C112.402 30.805 112.437 30.9197 112.51 31.0119C112.545 31.0502 112.589 31.0801 112.637 31.0997C112.686 31.1192 112.738 31.1279 112.791 31.1251C112.946 31.1214 113.098 31.0824 113.234 31.0111C113.371 30.9398 113.488 30.8383 113.577 30.7148L113.577 30.7142ZM108.335 30.8857V28.052H107.56V27.3569H108.333V26.0716H109.579V27.3569H110.511V28.052H109.579V30.8046C109.576 30.8606 109.586 30.9167 109.611 30.9674C109.636 31.0183 109.673 31.0621 109.72 31.095C109.845 31.1666 109.989 31.1999 110.133 31.1909C110.185 31.1905 110.236 31.1871 110.288 31.1808C110.348 31.1735 110.421 31.1623 110.504 31.149L110.511 31.8775C110.395 31.9026 110.277 31.9209 110.159 31.9321C110.041 31.9433 109.918 31.949 109.787 31.949C109.3 31.949 108.936 31.8603 108.696 31.683C108.573 31.5887 108.476 31.4667 108.413 31.3275C108.35 31.1884 108.323 31.0364 108.334 30.8847L108.335 30.8857ZM105.523 31.8279V25.7696H106.788V31.8269L105.523 31.8279ZM104.309 27.3578V31.8279H103.064V31.3375C102.848 31.5113 102.605 31.6513 102.345 31.7522C102.113 31.8442 101.866 31.8927 101.617 31.8953C101.381 31.9129 101.147 31.8418 100.963 31.6969C100.885 31.6181 100.825 31.5239 100.787 31.4208C100.749 31.3176 100.734 31.2078 100.743 31.0986V27.3568H101.995V30.7873C101.99 30.829 101.995 30.871 102.009 30.9107C102.023 30.9505 102.045 30.9869 102.074 31.0178C102.146 31.0712 102.237 31.0967 102.327 31.0891C102.45 31.0814 102.569 31.0494 102.678 30.9949C102.817 30.9319 102.947 30.851 103.064 30.7545V27.3568L104.309 27.3578ZM96.027 30.6167L97.2364 30.4366C97.2646 30.647 97.3617 30.8432 97.5134 30.9959C97.6675 31.1173 97.863 31.178 98.061 31.1659C98.2095 31.1733 98.3566 31.1359 98.4823 31.0587C98.5315 31.0282 98.5719 30.9859 98.5994 30.9357C98.6268 30.8856 98.6404 30.8293 98.6389 30.7726C98.6389 30.5409 98.215 30.211 97.3672 29.783L97.3348 29.7676C96.9979 29.6155 96.6922 29.4053 96.4325 29.1472C96.3292 29.0342 96.2526 28.9006 96.2083 28.7557C96.164 28.6107 96.1529 28.4582 96.1759 28.3087C96.1988 28.1591 96.2553 28.0164 96.3412 27.8904C96.4273 27.7644 96.5406 27.6583 96.6734 27.5796C97.0146 27.3568 97.46 27.2453 98.0092 27.2452C98.4489 27.2255 98.8848 27.3336 99.2612 27.5555C99.4119 27.6476 99.5387 27.7724 99.6316 27.9199C99.7245 28.0675 99.781 28.2339 99.7966 28.4063L98.6136 28.5951C98.5837 28.4331 98.5025 28.2841 98.3812 28.1691C98.2613 28.084 98.1179 28.0355 97.9696 28.0297C97.8211 28.0238 97.6743 28.0609 97.5477 28.1363C97.5013 28.169 97.4641 28.212 97.4391 28.262C97.4141 28.3119 97.402 28.367 97.4042 28.4225C97.4042 28.6185 97.7005 28.8717 98.2934 29.1819C98.452 29.2675 98.5768 29.3349 98.6648 29.382C99.0181 29.5607 99.3406 29.7919 99.6207 30.0669C99.7872 30.2506 99.8789 30.4872 99.8785 30.732C99.8797 30.9101 99.833 31.0854 99.7429 31.2406C99.653 31.3958 99.5227 31.5253 99.3653 31.6165C99.0236 31.8381 98.5718 31.9492 98.0097 31.9495C97.5387 31.9676 97.0731 31.845 96.6758 31.5983C96.504 31.4866 96.3577 31.3417 96.2459 31.1727C96.1341 31.0036 96.0593 30.8141 96.0261 30.6157L96.027 30.6167ZM91.69 31.8279V27.3568H92.9549V27.8476C93.1705 27.6775 93.4109 27.5397 93.6683 27.4385C93.8957 27.3491 94.1382 27.3016 94.3834 27.2984C94.621 27.2804 94.8566 27.351 95.0426 27.4957C95.1207 27.5731 95.1809 27.666 95.2191 27.7678C95.2572 27.8697 95.2726 27.9783 95.2642 28.0864V31.8269H94.0118V28.4553C94.0242 28.3563 93.9983 28.2564 93.9388 28.1751C93.8648 28.1197 93.7715 28.0942 93.6786 28.1041C93.5587 28.1115 93.4417 28.1436 93.3354 28.1983C93.1985 28.2621 93.0705 28.3429 92.9547 28.4386V31.8274L91.69 31.8279ZM86.9903 28.3808C86.9897 28.2117 87.0362 28.0454 87.1247 27.8998C87.2131 27.7542 87.3404 27.6344 87.493 27.5531C87.8304 27.3484 88.2815 27.2459 88.8462 27.2453C89.2933 27.2268 89.7357 27.34 90.1156 27.5698C90.2652 27.6557 90.3895 27.7777 90.4759 27.924C90.5625 28.0705 90.6085 28.2362 90.6094 28.4051V30.7144C90.615 30.8922 90.5734 31.0684 90.4884 31.2259C90.4034 31.3834 90.2781 31.517 90.1244 31.6137C89.8021 31.8325 89.3574 31.9417 88.7905 31.9413C88.2447 31.9413 87.8087 31.8286 87.4826 31.6031C87.3279 31.5053 87.2014 31.3707 87.1152 31.212C87.029 31.0533 86.986 30.8759 86.9903 30.6965V28.3808ZM88.2813 30.7799C88.2785 30.8344 88.2892 30.8887 88.3124 30.9385C88.3354 30.9882 88.3705 31.0319 88.4144 31.066C88.5245 31.1397 88.6571 31.1749 88.7905 31.1662C88.9315 31.1733 89.0711 31.1373 89.1898 31.0632C89.2371 31.0319 89.2755 30.9895 89.3015 30.94C89.3273 30.8905 89.3399 30.8354 89.338 30.7799V28.345C89.3375 28.2961 89.3231 28.2482 89.2966 28.2067C89.2701 28.1651 89.2323 28.1314 89.1874 28.1093C89.0661 28.0444 88.9288 28.0132 88.7905 28.0191C88.6616 28.0137 88.5339 28.045 88.4232 28.1093C88.3802 28.1328 88.3444 28.167 88.3195 28.2085C88.2946 28.2499 88.2815 28.297 88.2813 28.345V30.7799ZM81.7173 30.2737V27.1675C81.7097 26.9477 81.7593 26.7296 81.8615 26.5335C81.9636 26.3372 82.1151 26.1692 82.3019 26.045C82.6927 25.7748 83.2326 25.6396 83.9216 25.639C84.5702 25.639 85.0852 25.7778 85.4663 26.0553C85.6497 26.1854 85.7973 26.3572 85.8965 26.5557C85.9957 26.7542 86.0433 26.9733 86.0352 27.1938V27.7758H84.593V27.1093C84.6 27.0227 84.5871 26.9357 84.5556 26.8543C84.5241 26.773 84.4745 26.6993 84.4105 26.6387C84.2496 26.5363 84.0616 26.4818 83.8692 26.4818C83.6769 26.4818 83.4888 26.5363 83.3279 26.6387C83.2639 26.6995 83.2144 26.773 83.1828 26.8544C83.1513 26.9357 83.1385 27.0227 83.1453 27.1093V30.4898C83.1386 30.5771 83.1515 30.6647 83.1831 30.7467C83.2145 30.8286 83.2639 30.903 83.3279 30.9647C83.4884 31.068 83.6767 31.1231 83.8692 31.1231C84.0617 31.1231 84.2501 31.068 84.4105 30.9647C84.4745 30.903 84.5239 30.8288 84.5554 30.7467C84.587 30.6647 84.5997 30.5771 84.593 30.4898V29.6651H86.0344V30.2988C86.0344 30.8289 85.847 31.2377 85.4722 31.5253C85.0974 31.813 84.5633 31.957 83.8699 31.9575C83.1608 31.9575 82.6246 31.8149 82.2612 31.5298C81.8978 31.2446 81.7163 30.8255 81.7169 30.2724L81.7173 30.2737ZM74.4361 30.5669V28.5594C74.4348 28.3706 74.4825 28.1846 74.5749 28.0186C74.6674 27.8526 74.8014 27.712 74.9647 27.6098C75.3688 27.3506 75.847 27.2225 76.3307 27.2435C76.8999 27.2435 77.3399 27.3562 77.6454 27.5826C77.7977 27.6969 77.9191 27.8456 77.9991 28.0158C78.0792 28.1859 78.1153 28.3723 78.1046 28.5591V29.6986H75.7265V30.541C75.7088 30.7125 75.7522 30.8846 75.8494 31.0286C75.9052 31.0788 75.9715 31.1169 76.0436 31.1403C76.1158 31.1637 76.1923 31.1719 76.2679 31.1644C76.4211 31.1796 76.5746 31.1381 76.6978 31.0483C76.7793 30.9729 76.8198 30.8025 76.8198 30.541V30.2306H78.1049V30.5651C78.1049 31.0243 77.9487 31.3694 77.6364 31.6003C77.3241 31.8312 76.8573 31.9471 76.2361 31.9479C75.6776 31.9479 75.2395 31.8249 74.9175 31.5787C74.76 31.4593 74.6342 31.305 74.5504 31.1289C74.4666 30.9526 74.4273 30.7596 74.4357 30.5656L74.4361 30.5669ZM75.7269 29.0059H76.8203V28.5527C76.8273 28.4808 76.8196 28.4082 76.7974 28.3393C76.7753 28.2702 76.7393 28.2062 76.6913 28.1509C76.5754 28.06 76.4276 28.0165 76.2793 28.0297C76.1274 28.0158 75.9757 28.0591 75.8558 28.1509C75.8079 28.2062 75.7719 28.2702 75.7496 28.3391C75.7276 28.4082 75.7198 28.4808 75.7269 28.5527V29.0059ZM69.8227 30.6175L71.032 30.4373C71.0599 30.6479 71.1571 30.8441 71.309 30.9967C71.4631 31.1181 71.6585 31.1787 71.8565 31.1667C72.005 31.1741 72.1521 31.1367 72.2776 31.0595C72.327 31.0291 72.3674 30.9867 72.3949 30.9365C72.4225 30.8864 72.4363 30.8302 72.4348 30.7733C72.4348 30.5417 72.0109 30.2118 71.1631 29.7838L71.131 29.7683C70.7941 29.6165 70.4885 29.4063 70.2291 29.148C70.1257 29.0349 70.0493 28.9013 70.005 28.7564C69.9607 28.6115 69.9496 28.4589 69.9726 28.3095C69.9955 28.16 70.052 28.0172 70.1379 27.8913C70.2238 27.7652 70.3372 27.6591 70.47 27.5804C70.8118 27.3575 71.256 27.2459 71.8062 27.2459C72.2459 27.2263 72.6818 27.3344 73.0582 27.5563C73.2089 27.6484 73.3355 27.7732 73.4284 27.9207C73.5213 28.0683 73.5778 28.2347 73.5936 28.407L72.4102 28.5959C72.3807 28.4337 72.2995 28.2846 72.1779 28.1699C72.058 28.0848 71.9149 28.0362 71.7664 28.0303C71.6181 28.0245 71.4714 28.0617 71.3448 28.1371C71.2985 28.1696 71.261 28.2128 71.2358 28.2626C71.2106 28.3126 71.1986 28.3678 71.2006 28.4233C71.2006 28.6193 71.4971 28.8725 72.0901 29.1827C72.249 29.2683 72.3735 29.3357 72.4616 29.3828C72.8148 29.5615 73.1374 29.7927 73.4177 30.0677C73.5841 30.2515 73.6756 30.4879 73.6752 30.7328C73.6766 30.911 73.6299 31.0863 73.5398 31.2415C73.4497 31.3967 73.3193 31.5263 73.1618 31.6173C72.8203 31.8388 72.3685 31.9499 71.8067 31.9503C71.3355 31.9683 70.87 31.8457 70.4726 31.5991C70.3005 31.4874 70.154 31.3423 70.0421 31.1731C69.9303 31.004 69.8555 30.8142 69.8223 30.6157L69.8227 30.6175ZM67.7713 31.8287V27.3568H69.0364V31.8269L67.7713 31.8287ZM67.7713 26.6053V25.7715H69.0364V26.6053H67.7713ZM63.0138 31.8287V25.7696H64.2791V27.8476C64.4944 27.6774 64.7347 27.5395 64.992 27.4385C65.2194 27.3491 65.462 27.3016 65.7072 27.2984C65.9448 27.2804 66.1805 27.351 66.3666 27.4957C66.4446 27.5731 66.5047 27.666 66.5429 27.7678C66.581 27.8697 66.5964 27.9783 66.5879 28.0864V31.8269H65.3357V28.4553C65.3482 28.3563 65.3221 28.2564 65.2627 28.1751C65.1888 28.1196 65.0957 28.0939 65.0028 28.1037C64.8826 28.1111 64.7655 28.1432 64.6591 28.1979C64.5223 28.2616 64.3945 28.3425 64.2791 28.4383V31.827L63.0138 31.8287ZM58.302 30.5669V28.5925C58.2975 28.3996 58.3426 28.2087 58.4335 28.0371C58.5242 27.8656 58.6578 27.7188 58.8219 27.6103C59.1677 27.3656 59.6216 27.2435 60.1837 27.244C60.742 27.244 61.1781 27.3599 61.4955 27.5917C61.65 27.7032 61.7739 27.8496 61.8566 28.0184C61.9394 28.1871 61.9783 28.3728 61.9701 28.5596V28.9108H60.6851V28.5504C60.6922 28.4785 60.6846 28.4059 60.6625 28.3368C60.6403 28.2679 60.6043 28.2039 60.5563 28.1486C60.4403 28.0576 60.2925 28.0142 60.1441 28.0273C59.9923 28.0133 59.8406 28.0567 59.7209 28.1486C59.6729 28.2039 59.6367 28.2679 59.6146 28.3368C59.5924 28.4059 59.5847 28.4785 59.5918 28.5504V30.5392C59.5741 30.7112 59.6175 30.8838 59.7145 31.0286C59.7703 31.0788 59.8366 31.1169 59.9087 31.1403C59.981 31.1637 60.0574 31.1719 60.1332 31.1644C60.2862 31.1797 60.4396 31.1382 60.5625 31.0483C60.6443 30.9729 60.6851 30.8025 60.6851 30.5392V30.1963H61.9701V30.5651C61.9701 31.0231 61.8139 31.3681 61.5016 31.6003C61.1881 31.8319 60.7212 31.9479 60.1011 31.9479C59.5472 31.9479 59.1091 31.8244 58.7866 31.5774C58.6284 31.4586 58.5017 31.3049 58.4173 31.1289C58.3328 30.9529 58.2929 30.7597 58.301 30.5656L58.302 30.5669ZM53.6692 31.8287V27.3568H54.934V27.8476C55.1495 27.6774 55.3901 27.5395 55.6475 27.4385C55.8749 27.3491 56.1173 27.3016 56.3626 27.2984C56.6002 27.2804 56.8357 27.351 57.0218 27.4957C57.0998 27.5731 57.1599 27.666 57.1982 27.7678C57.2364 27.8697 57.2516 27.9783 57.2431 28.0864V31.8269H55.991V28.4553C56.0034 28.3563 55.9774 28.2564 55.918 28.1751C55.8441 28.1196 55.751 28.0941 55.6581 28.1037C55.5379 28.1111 55.4206 28.1432 55.3142 28.1979C55.1774 28.2619 55.0495 28.3426 54.934 28.4383V31.827L53.6692 31.8287ZM51.2719 31.3268C51.0789 31.5022 50.8548 31.6423 50.6105 31.7402C50.3761 31.8369 50.1242 31.8871 49.8696 31.8876C49.5759 31.9056 49.2863 31.8139 49.0598 31.6314C48.9613 31.5371 48.8847 31.4234 48.8353 31.2977C48.786 31.1722 48.7652 31.0378 48.774 30.9037C48.7736 30.7008 48.8208 30.5004 48.912 30.3178C49.0033 30.1353 49.1361 29.9753 49.3003 29.85C49.6505 29.5612 50.2949 29.2491 51.2334 28.9134V28.4293C51.2371 28.374 51.2296 28.3185 51.2113 28.266C51.1928 28.2135 51.164 28.1651 51.1263 28.1235C51.084 28.0864 51.0343 28.0582 50.9804 28.0402C50.9264 28.0224 50.8694 28.0152 50.8125 28.0194C50.667 28.0112 50.5223 28.0462 50.3976 28.1196C50.3499 28.1492 50.3111 28.1903 50.2847 28.239C50.2584 28.2875 50.2454 28.342 50.2471 28.3969V28.644H48.982C48.9815 28.6243 48.9792 28.6046 48.9755 28.5852C48.9718 28.5659 48.9698 28.5462 48.9693 28.5266C48.9698 28.3412 49.0192 28.1592 49.1128 27.9978C49.2065 27.8362 49.3412 27.7008 49.5039 27.6044C49.9038 27.3521 50.3743 27.2262 50.8507 27.244C51.4156 27.244 51.8359 27.3585 52.1116 27.5874C52.3874 27.8163 52.5248 28.1686 52.524 28.644V30.5496C52.524 30.8488 52.5347 31.109 52.5563 31.3319C52.5653 31.4995 52.5947 31.6654 52.644 31.8262H51.3899C51.3538 31.7612 51.3279 31.6913 51.3125 31.619C51.2908 31.5222 51.2769 31.4239 51.2709 31.325L51.2719 31.3268ZM51.2334 30.7155V29.5557C50.8981 29.6816 50.5878 29.863 50.3163 30.092C50.2348 30.1699 50.1704 30.2632 50.1272 30.3661C50.0841 30.4688 50.0629 30.5793 50.0651 30.6904C50.0576 30.8063 50.0933 30.9209 50.1659 31.0132C50.2009 31.0513 50.2444 31.0814 50.2932 31.101C50.3417 31.1205 50.3944 31.1292 50.447 31.1264C50.602 31.1227 50.7539 31.0837 50.8904 31.0124C51.0271 30.9412 51.1445 30.8397 51.2332 30.7161L51.2334 30.7155ZM45.6896 31.8292V27.3568H46.9549V27.9648C47.1013 27.7573 47.2983 27.5883 47.5284 27.4728C47.7624 27.3595 48.0209 27.3028 48.2822 27.3071H48.4088V28.2405C48.3475 28.2201 48.2843 28.2054 48.2201 28.1964C48.1474 28.1862 48.0741 28.1813 48.0007 28.1821C47.7307 28.1678 47.4629 28.2352 47.2341 28.3752C47.1453 28.4328 47.0731 28.5115 47.0242 28.6039C46.9753 28.6962 46.9515 28.799 46.9549 28.9028V31.8269L45.6896 31.8292ZM41.7314 31.8292V25.7696H45.387V26.645H43.1328V28.2335H44.7564V29.1086H43.1328V31.8273L41.7314 31.8292Z" fill="white"/>
<path d="M147.837 10.0247L148.35 9.97632C148.366 10.1165 148.433 10.2467 148.537 10.3445C148.645 10.4271 148.781 10.4687 148.918 10.4615C149.055 10.4713 149.19 10.4345 149.301 10.3575C149.341 10.3291 149.374 10.2923 149.396 10.2499C149.418 10.2075 149.43 10.1607 149.431 10.113C149.432 10.0574 149.414 10.0031 149.376 9.96019C149.324 9.90834 149.258 9.87053 149.188 9.85041C149.126 9.82942 148.985 9.79252 148.766 9.73971C148.55 9.70155 148.347 9.61578 148.172 9.48904C148.095 9.42657 148.035 9.34847 147.994 9.26034C147.951 9.17221 147.931 9.07623 147.931 8.97925C147.931 8.85035 147.971 8.72433 148.044 8.61724C148.123 8.50163 148.237 8.4121 148.37 8.36046C148.533 8.29795 148.707 8.26805 148.882 8.27252C149.147 8.25361 149.408 8.32776 149.621 8.48143C149.704 8.55088 149.77 8.63671 149.814 8.73307C149.859 8.82944 149.882 8.93407 149.882 9.03987L149.356 9.06224C149.345 8.95433 149.293 8.85417 149.21 8.7814C149.113 8.71763 148.995 8.68756 148.877 8.69593C148.751 8.68858 148.625 8.72047 148.518 8.78699C148.491 8.80428 148.47 8.82773 148.455 8.85519C148.441 8.88264 148.434 8.91324 148.435 8.94413C148.435 8.97392 148.442 9.00329 148.455 9.02997C148.469 9.05666 148.489 9.07995 148.513 9.09802C148.661 9.18335 148.826 9.24071 148.996 9.26712C149.193 9.30591 149.383 9.36704 149.565 9.44923C149.683 9.50804 149.782 9.59703 149.853 9.70667C149.924 9.83132 149.96 9.97238 149.957 10.1151C149.953 10.2578 149.91 10.397 149.833 10.5181C149.748 10.6458 149.625 10.7446 149.481 10.8008C149.299 10.8674 149.106 10.8987 148.913 10.8931C148.64 10.9108 148.371 10.8319 148.153 10.6712C147.967 10.503 147.853 10.2716 147.837 10.0247Z" fill="white"/>
<path d="M150.393 10.8491V8.31546H151.18L151.654 10.0439L152.121 8.31546H152.91V10.8491H152.422V8.85465L151.904 10.8491H151.397L150.881 8.85465V10.8491H150.393Z" fill="white"/>
<path fill-rule="evenodd" clip-rule="evenodd" d="M19.1916 0C22.2857 2.57276e-05 25.3105 0.891692 27.8831 2.56224C30.4559 4.23279 32.4611 6.60719 33.6452 9.3852C34.8292 12.1632 35.139 15.22 34.5353 18.1691C33.9318 21.1182 32.4417 23.8271 30.2537 25.9533C28.0658 28.0795 25.2782 29.5275 22.2435 30.1141C19.2088 30.7007 16.0633 30.3996 13.2046 29.249C10.3459 28.0983 7.90257 26.1497 6.18351 23.6496C4.46446 21.1495 3.5469 18.2101 3.54688 15.2033C3.54733 11.1712 5.19576 7.30449 8.12961 4.45342C11.0635 1.60235 15.0425 0.000448406 19.1916 0Z" fill="white"/>
<path fill-rule="evenodd" clip-rule="evenodd" d="M6.71535 14.729C6.71517 14.5134 6.89484 14.3386 7.11663 14.3385L8.37724 14.3376C8.59899 14.3374 8.77889 14.512 8.7791 14.7274L8.78009 15.7518C8.78029 15.9674 8.60065 16.1422 8.37885 16.1424L7.11809 16.1434C6.8963 16.1436 6.71635 15.969 6.71618 15.7535L6.71535 14.729ZM24.3808 18.4554C24.3807 18.24 24.5603 18.0652 24.782 18.0649L26.0423 18.0637C26.2642 18.0635 26.4441 18.2381 26.4443 18.4537L26.4452 19.4777C26.4453 19.6933 26.2657 19.8681 26.0439 19.8684L24.7836 19.8694C24.5618 19.8697 24.3819 19.6951 24.3818 19.4795L24.3808 18.4554ZM20.4841 13.7839C20.484 13.5684 20.6635 13.3937 20.8853 13.3934L22.145 13.3923C22.3669 13.392 22.5468 13.5666 22.547 13.7822L22.5479 14.8059C22.548 15.0214 22.3684 15.1962 22.1466 15.1965L20.8866 15.1974C20.6648 15.1977 20.4848 15.023 20.4846 14.8074L20.4841 13.7839ZM11.5494 16.1843C11.5492 15.9688 11.7289 15.794 11.9507 15.7938L13.2112 15.7928C13.433 15.7927 13.6129 15.9672 13.6131 16.1828L13.6141 17.2072C13.6144 17.4227 13.4346 17.5977 13.2128 17.5978L11.9522 17.5987C11.7304 17.5988 11.5505 17.4243 11.5503 17.2087L11.5494 16.1843ZM29.2146 19.9105C29.2145 19.695 29.3941 19.5201 29.6159 19.52L30.876 19.519C31.0978 19.5188 31.2777 19.6934 31.278 19.9089L31.279 20.9335C31.2792 21.149 31.0996 21.3238 30.8778 21.324L29.6174 21.325C29.3956 21.3251 29.2157 21.1506 29.2155 20.935L29.2146 19.9105ZM18.4754 15.9001C18.4751 15.6846 18.6548 15.5097 18.8766 15.5096L21.3105 15.5076C21.5323 15.5075 21.7122 15.6821 21.7124 15.8976L21.7142 17.9481C21.7144 18.1636 21.5347 18.3385 21.3129 18.3386L18.8791 18.3406C18.6573 18.3407 18.4774 18.1661 18.4772 17.9506L18.4754 15.9001ZM9.54095 18.3006C9.54078 18.0851 9.72043 17.9102 9.9422 17.9101L12.3757 17.908C12.5975 17.9079 12.7775 18.0825 12.7776 18.298L12.7793 20.3481C12.7795 20.5636 12.5998 20.7385 12.3781 20.7387L9.94453 20.7407C9.72273 20.7409 9.54278 20.5664 9.54261 20.3508L9.54095 18.3006ZM17.0483 21.8926C17.0482 21.677 17.2279 21.5022 17.4497 21.5021L18.2649 21.5014C18.4867 21.5013 18.6666 21.6758 18.6667 21.8914L18.6671 22.5266C18.6672 22.7421 18.4876 22.9169 18.2658 22.9171L17.4507 22.9176C17.2289 22.9177 17.049 22.7432 17.0489 22.5276L17.0483 21.8926ZM23.8617 15.0955C23.8616 14.88 24.0412 14.7052 24.263 14.705L26.6966 14.703C26.9184 14.7028 27.0983 14.8774 27.0986 15.0929L27.1004 17.1435C27.1007 17.3591 26.9211 17.5339 26.6993 17.5341L24.2655 17.536C24.0436 17.5361 23.8637 17.3616 23.8636 17.146L23.8617 15.0955ZM14.9271 17.4961C14.9268 17.2805 15.1065 17.1057 15.3283 17.1056L17.7621 17.1036C17.9839 17.1035 18.1638 17.2781 18.1639 17.4936L18.1657 19.5439C18.1658 19.7595 17.9862 19.9343 17.7644 19.9344L15.3308 19.9364C15.109 19.9365 14.9291 19.762 14.9288 19.5464L14.9271 17.4961ZM20.7688 19.7583C20.7687 19.5428 20.9483 19.3679 21.1701 19.3678L22.8755 19.3666C23.0973 19.3665 23.2772 19.5411 23.2773 19.7566L23.2785 21.1701C23.2786 21.3856 23.099 21.5605 22.8772 21.5607L21.172 21.562C20.9502 21.5623 20.7703 21.3877 20.7701 21.1722L20.7688 19.7583ZM18.2401 14.002C18.2398 13.7864 18.4195 13.6116 18.6413 13.6113L19.416 13.6108C19.6378 13.6105 19.8177 13.7851 19.818 14.0007L19.8184 14.6007C19.8187 14.8163 19.639 14.9911 19.4172 14.9912L18.6425 14.9919C18.4208 14.992 18.2409 14.8174 18.2406 14.602L18.2401 14.002ZM9.30539 16.4029C9.3052 16.1872 9.48489 16.0124 9.70669 16.0122L10.4816 16.0117C10.7034 16.0116 10.8833 16.1861 10.8834 16.4016L10.884 17.0011C10.8842 17.2167 10.7045 17.3915 10.4827 17.3916L9.70779 17.3923C9.48603 17.3924 9.30611 17.2178 9.30592 17.0023L9.30539 16.4029ZM26.9703 20.1289C26.9701 19.9134 27.1497 19.7385 27.3715 19.7384L28.1467 19.7378C28.3685 19.7376 28.5484 19.9122 28.5485 20.1277L28.5489 20.7273C28.549 20.9427 28.3694 21.1175 28.1477 21.1178L27.3727 21.1183C27.1509 21.1186 26.971 20.944 26.9707 20.7285L26.9703 20.1289ZM21.9524 15.8024C21.9522 15.587 22.1319 15.4122 22.3536 15.4119L23.1285 15.4113C23.3503 15.411 23.5303 15.5857 23.5304 15.8012L23.5308 16.4008C23.531 16.6162 23.3513 16.791 23.1297 16.7913L22.3549 16.7919C22.133 16.7922 21.9531 16.6176 21.9529 16.402L21.9524 15.8024ZM13.0179 18.2027C13.0178 17.9871 13.1974 17.8123 13.4193 17.8122L14.1941 17.8116C14.4158 17.8115 14.5957 17.9861 14.5959 18.2015L14.5963 18.8014C14.5966 19.0171 14.417 19.1919 14.195 19.1921L13.4203 19.1926C13.1986 19.1927 13.0187 19.0181 13.0185 18.8026L13.0179 18.2027ZM31.6801 18.3421C31.6799 18.1266 31.8595 17.9517 32.0813 17.9515L32.8562 17.951C33.078 17.9507 33.2579 18.1253 33.2582 18.3408L33.2586 18.9405C33.2589 19.156 33.0792 19.3309 32.8574 19.331L32.0825 19.3316C31.8607 19.3318 31.6808 19.1572 31.6805 18.9417L31.6801 18.3421ZM5.875 17.4773C5.87481 17.2618 6.05448 17.087 6.27627 17.0868L8.15791 17.0854C8.37969 17.0853 8.55961 17.2598 8.5598 17.4754L8.56113 19.0429C8.56132 19.2584 8.3817 19.4332 8.15992 19.4335L6.27827 19.4351C6.05649 19.4353 5.87653 19.2608 5.87634 19.0452L5.875 17.4773ZM19.25 11.461C19.2498 11.2454 19.4294 11.0706 19.6512 11.0704L20.9518 11.0693C21.1736 11.0692 21.3535 11.2437 21.3538 11.4592L21.3547 12.5186C21.355 12.7342 21.1753 12.909 20.9535 12.9092L19.6528 12.9104C19.431 12.9105 19.2511 12.736 19.2509 12.5204L19.25 11.461ZM10.3155 13.8612C10.3153 13.6457 10.4949 13.4708 10.7167 13.4707L12.0174 13.4697C12.2391 13.4695 12.419 13.6441 12.4193 13.8595L12.4203 14.9189C12.4206 15.1344 12.2409 15.3093 12.0191 15.3095L10.7182 15.3106C10.4964 15.3108 10.3165 15.1363 10.3163 14.9207L10.3155 13.8612ZM27.9806 17.5873C27.9806 17.3718 28.1602 17.197 28.3819 17.1969L29.6828 17.196C29.9046 17.1958 30.0845 17.3704 30.0847 17.586L30.0856 18.6453C30.0857 18.8609 29.9061 19.0357 29.6843 19.036L28.3831 19.037C28.1613 19.0373 27.9812 18.8626 27.9812 18.647L27.9806 17.5873ZM24.0838 12.9159C24.0837 12.7004 24.2633 12.5255 24.4851 12.5253L25.7859 12.5243C26.0077 12.5241 26.1877 12.6987 26.1879 12.9142L26.1889 13.9739C26.1891 14.1894 26.0095 14.3642 25.7877 14.3645L24.4866 14.3655C24.2648 14.3658 24.0849 14.1912 24.0847 13.9757L24.0838 12.9159ZM15.1493 15.3171C15.149 15.1015 15.3287 14.9267 15.5505 14.9266L16.8512 14.9254C17.073 14.9253 17.2529 15.0998 17.2532 15.3154L17.254 16.3749C17.2542 16.5904 17.0746 16.7653 16.8528 16.7654L15.5522 16.7664C15.3304 16.7666 15.1505 16.592 15.1502 16.3765L15.1493 15.3171ZM28.2698 15.983C28.2696 15.7674 28.4492 15.5926 28.671 15.5925L28.9198 15.5922C29.1415 15.5921 29.3214 15.7666 29.3217 15.9821L29.3218 16.1218C29.3221 16.3373 29.1424 16.5121 28.9206 16.5124L28.6718 16.5125C28.45 16.5128 28.2701 16.3382 28.2698 16.1227V15.983ZM15.6502 12.3293C15.6499 12.1137 15.8296 11.9389 16.0514 11.9387L17.3112 11.9376C17.5331 11.9374 17.7131 12.1121 17.7132 12.3276L17.7139 13.3515C17.714 13.567 17.5344 13.7418 17.3127 13.7421L16.053 13.743C15.8312 13.7432 15.6513 13.5687 15.651 13.3531L15.6502 12.3293Z" fill="#6E678F"/>
<path d="M17.585 31.4572C23.4784 31.4572 29.1255 29.6449 32.1693 25.5313C32.7801 24.7057 32.97 24.0924 32.9387 23.6312C32.9086 23.188 32.6656 22.7756 32.1437 22.3612C31.6146 21.9412 30.8441 21.5574 29.8644 21.1811C28.8899 20.8068 27.7443 20.4531 26.4842 20.0794C26.4841 20.0794 26.4841 20.0794 26.4841 20.0794L26.6263 19.6L17.585 31.4572ZM17.585 31.4572C8.12339 31.4572 0.5 24.2162 0.5 15.3469M17.585 31.4572L0.5 15.3469M0.5 15.3469C0.5 10.3234 2.94 5.82919 6.77814 2.86951M0.5 15.3469L6.77814 2.86951M6.77814 2.86951C7.03464 2.67171 7.33157 2.67805 7.59324 2.83618M6.77814 2.86951L7.59324 2.83618M7.59324 2.83618C7.86504 3.00043 8.06367 3.31367 8.06108 3.67445L7.59324 2.83618Z" fill="white" stroke="#6E678F"/>
<path d="M27.8428 15.6098C27.8428 15.3942 28.0225 15.2195 28.2443 15.2195H28.6809H29.0475C29.2693 15.2195 29.4491 15.3942 29.4491 15.6098V16.2602C29.4491 16.4757 29.2693 16.6504 29.0475 16.6504H28.2443C28.0225 16.6504 27.8428 16.4757 27.8428 16.2602V15.6098Z" fill="#6E678F"/>
</g>
<defs>
<clipPath id="clip0_454_38">
<rect width="153" height="32" fill="white"/>
</clipPath>
</defs>
</svg>
