<svg width="96" height="96" viewBox="0 0 96 96" fill="none" xmlns="http://www.w3.org/2000/svg">
<path d="M48 0C21.4708 0 0 21.4682 0 48C0 74.5294 21.4678 96 48 96C74.5294 96 96 74.5318 96 48C96 21.4706 74.5318 0 48 0ZM65.2946 53.3284L42.7395 66.3609C40.8368 67.4604 38.4906 67.4623 36.5846 66.3626C34.68 65.2635 33.5068 63.2316 33.5068 61.0327V34.9674C33.5068 32.7684 34.6802 30.7367 36.5846 29.6376C37.5364 29.0882 38.5986 28.8135 39.6608 28.8135C40.7239 28.8135 41.7872 29.0888 42.7395 29.6389L65.2948 42.6714C67.1978 43.7709 68.3698 45.8019 68.3698 47.9998C68.3698 50.1979 67.1976 52.2287 65.2946 53.3284Z" fill="#FB8500"/>
</svg>
