<svg width="42" height="42" viewBox="0 0 42 42" fill="none" xmlns="http://www.w3.org/2000/svg">
<path d="M39.2 9.71179C37.8602 10.3068 36.421 10.7072 34.9104 10.8878C36.4532 9.96379 37.6362 8.50079 38.1934 6.75639C36.7514 7.61179 35.1526 8.23339 33.4502 8.56939C32.088 7.11759 30.1476 6.21039 28 6.21039C23.8756 6.21039 20.5324 9.55499 20.5324 13.678C20.5324 14.2632 20.5996 14.8344 20.7256 15.379C14.5194 15.0682 9.01742 12.0946 5.33261 7.57539C4.69141 8.67859 4.32321 9.96099 4.32321 11.3316C4.32321 13.9216 5.64061 16.2078 7.64401 17.5462C6.42041 17.507 5.26821 17.171 4.26161 16.6124C4.26161 16.6446 4.26161 16.674 4.26161 16.7062C4.26161 20.3252 6.83481 23.3436 10.2522 24.0282C9.62641 24.199 8.96561 24.29 8.28381 24.29C7.80361 24.29 7.33461 24.2424 6.87961 24.157C7.83021 27.1236 10.5882 29.2838 13.8558 29.344C11.3008 31.3474 8.08081 32.5416 4.58081 32.5416C3.97881 32.5416 3.38381 32.5066 2.79861 32.4366C6.10401 34.5548 10.0282 35.791 14.2464 35.791C27.9832 35.791 35.4928 24.4118 35.4928 14.5432C35.4928 14.2198 35.4858 13.8978 35.4718 13.5772C36.932 12.523 38.199 11.2084 39.2 9.71179Z" fill="white"/>
</svg>
